<svg xmlns="http://www.w3.org/2000/svg" xmlns:xlink="http://www.w3.org/1999/xlink" style="display: none" fill-rule="evenodd" clip-rule="evenodd" stroke-linecap="round" stroke-linejoin="round" stroke-miterlimit="1.414">
  <!-- Engineering icons v.1.0 created by Rodrigo Roa Rodriguez on 24/03/16-->
  <symbol id="Architect" viewBox="0 0 200 200">
    <clipPath id="a"><path d="M0 0h200v200H0z"/></clipPath><g clip-path="url(#a)"><path d="M140 122h11.487c14.713 0 27.742 9.996 32.245 24.736L200 200h-90c17.234-21.963 23.79-46.266 30-78zm-71.487 0H80c6.21 31.734 12.765 56.036 30 78H69.108l-19.717-71.746C54.879 124.268 61.505 122 68.513 122zM38.05 200H20l9.501-31.107L38.05 200z"/><path d="M156.278 74.771c.04.843.064 1.696.074 2.558 1.747-2.725 2.953-4.036 5.077-4.036 2.388 0 8.571 5.853 8.571 10.666 0 4.866-5 15.444-8.571 18.532-2.004 1.733-5.353 2.55-8.208 2.27-6.73 21.446-28.814 36.662-43.221 36.662-14.407 0-36.491-15.216-43.221-36.662-2.855.28-6.204-.537-8.208-2.27C55 99.403 50 88.825 50 83.959c0-4.813 6.183-10.666 8.571-10.666 2.124 0 3.33 1.311 5.077 4.036.01-.862.034-1.715.074-2.558C74.731 78.574 91.381 81 110 81s35.269-2.426 46.278-6.229z" fill="none" stroke-width="6.48"/><path d="M159.849 41.407C166.259 44.895 170 49.09 170 53.603v10.274C170 73.327 143.115 81 110 81c-33.115 0-60-7.673-60-17.123V53.603c0-4.513 3.741-8.708 10.151-12.196A38.949 38.949 0 0 0 60 44.836c0 .955.156 1.873.456 2.754-.562.961-.856 1.951-.856 2.963 0 8.941 22.942 16.2 51.2 16.2 28.258 0 51.2-7.259 51.2-16.2 0-1.589-.725-3.126-2.076-4.577.051-.374.076-.754.076-1.14 0-1.154-.051-2.297-.151-3.429z"/><path d="M100 1.879A56.876 56.876 0 0 1 110 1c3.424 0 6.769.302 10 .879v36.543c0 1.701.617 3.333 1.714 4.535 1.097 1.203 2.586 1.879 4.138 1.879h.002c2.437 0 4.561-1.818 5.152-4.408l7.244-31.757C151.381 16.575 160 29.83 160 44.836c0 24.193-100 24.193-100 0 0-15.006 8.619-28.261 21.75-36.165l7.244 31.757c.591 2.59 2.715 4.408 5.152 4.408h.002c1.552 0 3.041-.676 4.138-1.879 1.097-1.202 1.714-2.834 1.714-4.535V1.879zM105.958 160.414c-.603-.336-1.122-.761-1.514-1.274-1.495-1.959-2.744-8.44-3.534-13.572 2.202 1.517 5.458 2.478 9.09 2.478 3.632 0 6.888-.961 9.09-2.478-.79 5.132-2.039 11.613-3.534 13.572-.392.513-.911.938-1.514 1.274L118 200h-16l3.958-39.586z"/><g fill-rule="nonzero"><path d="M35.804 71.844c.29.105.374.114.63.293.286.201.517.476.665.793.092.197.147.418.2.628l39.856 148.746c.054.304.088.382.061.692a2.013 2.013 0 0 1-.845 1.464c-.256.179-.34.188-.63.294l-28.978 7.764c-.303.054-.381.088-.692.061a2.017 2.017 0 0 1-1.464-.845c-.179-.256-.188-.34-.293-.63-13.288-49.592-27.331-98.988-39.865-148.776l-.072-.27c-.054-.304-.088-.381-.061-.692a2.014 2.014 0 0 1 .846-1.464c.256-.179.34-.188.63-.294l.017-.004c.292-.053.366-.085.665-.063a2.015 2.015 0 0 1 1.749 1.36c.035.106.054.216.079.325.008.037.012.072.023.108.01.029.023.056.038.084.091.156.233.279.379.384.284.206.607.354.934.477.516.193 1.055.32 1.597.413.738.127 1.486.188 2.233.21a25.004 25.004 0 0 0 3.45-.158 34.934 34.934 0 0 0 8.167-1.976 28.366 28.366 0 0 0 3.499-1.575 18.817 18.817 0 0 0 2.49-1.579c.568-.432 1.113-.906 1.575-1.452a5.61 5.61 0 0 0 .403-.54c.044-.069.086-.14.126-.212.074-.137.14-.28.184-.43a.821.821 0 0 0 .04-.361c-.007-.042-.022-.08-.037-.119l-.094-.321c-.034-.295-.062-.371-.022-.668a2.014 2.014 0 0 1 .857-1.384c.248-.169.328-.178.607-.278l.018-.005c.343-.061.343-.061.692-.061l.343.061zm-1.027 7.909s-1.988 1.626-3.086 2.292a28.597 28.597 0 0 1-3.085 1.612 37.04 37.04 0 0 1-5.271 1.896 38.111 38.111 0 0 1-5.383 1.1 30.164 30.164 0 0 1-4.062.256c-1.395-.012-2.79-.138-4.151-.447l-.044-.01L47.66 228.137l25.114-6.729A652503.825 652503.825 0 0 0 34.777 79.753z"/><path d="M27.386 69.272a7.707 7.707 0 0 1 1.751.23c.823.218 1.608.625 2.176 1.269a3.306 3.306 0 0 1 .836 2.321 3.888 3.888 0 0 1-.239 1.206 5.37 5.37 0 0 1-.872 1.505 8.73 8.73 0 0 1-1.324 1.311c-.554.45-1.149.849-1.764 1.211a22.845 22.845 0 0 1-2.933 1.432 34.773 34.773 0 0 1-3.466 1.199 47.827 47.827 0 0 1-3.183.808l-.344.075c-.201.043-.406.095-.613.109a2.015 2.015 0 0 1-1.502-.531 1.997 1.997 0 0 1 .563-3.297 2.33 2.33 0 0 1 .39-.125l.649-.138c1.498-.333 2.984-.723 4.437-1.22.98-.336 1.946-.717 2.877-1.173.642-.314 1.27-.663 1.857-1.072.431-.301.845-.635 1.189-1.035l.028-.034a4.167 4.167 0 0 0-.696-.053c-.446-.001-.891.049-1.334.102a35.93 35.93 0 0 0-2.784.451 47.677 47.677 0 0 0-5.817 1.555c-.886.298-1.763.623-2.626.981-.802.334-1.593.696-2.362 1.101-.323.17-.642.348-.956.535-.289.172-.572.353-.849.543-.209.144-.414.293-.613.451a8.361 8.361 0 0 0-.736.652c-.079.08-.155.162-.228.246a3.176 3.176 0 0 0-.479.699 1.212 1.212 0 0 0-.132.488.98.98 0 0 0 .036.258l.03.133c.018.12.026.15.032.271a1.998 1.998 0 0 1-2.574 2.013 2.014 2.014 0 0 1-1.273-1.154 2.73 2.73 0 0 1-.132-.444 4.852 4.852 0 0 1 .007-2.161c.264-1.15.923-2.165 1.727-3.015.763-.806 1.657-1.482 2.59-2.079 1.25-.799 2.586-1.463 3.948-2.049a44.592 44.592 0 0 1 4.224-1.556 52.885 52.885 0 0 1 4.302-1.158 44.144 44.144 0 0 1 3.402-.63 22.065 22.065 0 0 1 2.266-.228c.171-.004.342-.005.514-.003z"/></g></g>
  </symbol>
  <symbol id="Biotechnology" viewBox="0 0 200 200">
    <path d="M140 60H99.876C77.853 60 60 77.853 60 99.876V140h40.124C122.147 140 140 122.147 140 100.124V60zM60 180v-40H20M140 20v40h40" fill="none" stroke-width="10"/><g fill="none" stroke-width="5"><path d="M80 130l-10-10M122.5 70l10 10M100 130l-30-30M102.5 70l30 30M115 125L75 85M87.5 75l40 40"/></g><path d="M40 150l10 10M150 40l10 10" fill="none" stroke-width="5"/>
  </symbol>
  <symbol id="Civil" viewBox="0 0 200 200">
    <g clip-path="url(#a)"><path d="M50 121.178V200H10l16.268-54.63C29.876 133.255 38.96 124.265 50 121.178zM140 200H60v-20h80v20zm10-78.822c11.04 3.087 20.124 12.077 23.732 24.192L190 200h-40v-78.822zm-10 8.81V170H60v-40.012C69.126 142.137 83.652 150 100 150s30.874-7.863 40-20.012z"/><path d="M146.278 73.771c.04.843.064 1.696.074 2.558 1.747-2.725 2.953-4.036 5.077-4.036 2.388 0 8.571 5.853 8.571 10.666 0 4.866-5 15.444-8.571 18.532-2.004 1.733-5.353 2.55-8.208 2.27-6.73 21.446-28.814 36.662-43.221 36.662-14.407 0-36.491-15.216-43.221-36.662-2.855.28-6.204-.537-8.208-2.27C45 98.403 40 87.825 40 82.959c0-4.813 6.183-10.666 8.571-10.666 2.124 0 3.33 1.311 5.077 4.036.01-.862.034-1.715.074-2.558C64.731 77.574 81.381 80 100 80s35.269-2.426 46.278-6.229z" fill="none" stroke-width="6.48"/><path d="M149.849 40.407C156.259 43.895 160 48.09 160 52.603v10.274C160 72.327 133.115 80 100 80c-33.115 0-60-7.673-60-17.123V52.603c0-4.513 3.741-8.708 10.151-12.196A38.949 38.949 0 0 0 50 43.836c0 .955.156 1.873.456 2.754-.562.961-.856 1.951-.856 2.963 0 8.941 22.942 16.2 51.2 16.2 28.258 0 51.2-7.259 51.2-16.2 0-1.589-.725-3.126-2.076-4.577.051-.374.076-.754.076-1.14 0-1.154-.051-2.297-.151-3.429z"/><path d="M90 .879A56.876 56.876 0 0 1 100 0c3.424 0 6.769.302 10 .879v36.543c0 1.701.617 3.333 1.714 4.535 1.097 1.203 2.586 1.879 4.138 1.879h.002c2.437 0 4.561-1.818 5.152-4.408l7.244-31.757C141.381 15.575 150 28.83 150 43.836c0 24.193-100 24.193-100 0 0-15.006 8.619-28.261 21.75-36.165l7.244 31.757c.591 2.59 2.715 4.408 5.152 4.408h.002c1.552 0 3.041-.676 4.138-1.879C89.383 40.755 90 39.123 90 37.422V.879z"/></g>
  </symbol>
  <symbol id="Chemistry" viewBox="0 0 200 200">
    <clipPath id="a"><path d="M0 0h200v200H0z"/></clipPath><g clip-path="url(#a)"><path d="M113.794 66.651c0 4.473-22.345 8.104-49.868 8.104-21.248 0-39.41-2.164-46.586-5.209-2.119-.899-15.747 1.427-15.747.407" fill="none" stroke-width="2"/><path d="M64.471 57.014c7.733.033 15.463.51 23.134 1.453 2.83.348 5.652.76 8.459 1.248 2.685.467 5.358 1.003 8.004 1.643 1.665.403 3.321.847 4.953 1.363 1.298.41 2.586.862 3.828 1.413.501.222.994.462 1.471.73.261.147.521.294.714.525.17.203.284.447.33.703.015.086.015.173.023.259 0 37.141.436 74.285-.002 111.424a16.077 16.077 0 0 1-.895 5.073c-.245.705-.54 1.393-.879 2.061-.26.513-.547 1.014-.857 1.501-1.853 2.91-4.512 5.282-7.462 7.143-.492.31-.993.607-1.502.891-.651.363-1.314.705-1.989 1.026a38.388 38.388 0 0 1-6.572 2.408c-1.601.425-3.232.738-4.87 1.001-2.317.371-4.651.638-6.989.853-2.676.247-5.358.421-8.043.547-3.614.169-7.232.25-10.849.258-4.509.009-9.019-.093-13.52-.338-3.236-.176-6.47-.423-9.688-.802a89.602 89.602 0 0 1-4.168-.582c-1.202-.2-2.399-.43-3.583-.711a37.731 37.731 0 0 1-4.071-1.219c-1-.361-1.984-.762-2.948-1.205a34.845 34.845 0 0 1-3.728-1.995c-3.246-2.012-6.161-4.64-8.058-7.907a17.536 17.536 0 0 1-.896-1.767 16.342 16.342 0 0 1-.886-2.616 16.631 16.631 0 0 1-.466-3.755c-.1-25.698 0-51.396 0-77.094a37.721 37.721 0 0 0-.277-4.562 38.037 38.037 0 0 0-2.558-9.802 38.358 38.358 0 0 0-2.337-4.744 41.684 41.684 0 0 0-1.32-2.115l-5.72-8.538c-.114-.206-.158-.254-.213-.484a1.511 1.511 0 0 1 .446-1.453c.176-.163.24-.181.452-.294 1.785-.774 3.569-1.553 5.357-2.321a41.506 41.506 0 0 1 3.639-1.343 41.78 41.78 0 0 1 4.021-1.044l.12-.024c.092-.072.185-.141.279-.209.118-.083.118-.082.237-.163.222-.143.447-.282.679-.41a17.019 17.019 0 0 1 2.244-1.014 33.264 33.264 0 0 1 2.802-.906 60.57 60.57 0 0 1 4.015-.964 99.598 99.598 0 0 1 5.122-.912c4.6-.706 9.238-1.173 13.881-1.513 6.085-.447 12.187-.659 18.289-.709.949-.007 1.898-.01 2.847-.008zm-1.116 3.068c-6.599.019-13.198.225-19.778.709-2.485.182-4.967.404-7.443.677-2.319.256-4.634.556-6.937.925-1.723.276-3.44.59-5.143.967-1.293.286-2.58.608-3.843 1-.89.276-1.773.585-2.619.973-.292.134-.58.278-.857.438a5.028 5.028 0 0 0-.758.523l-.032.028-.039.036-.233.176c-.088.044-.172.096-.263.131-.182.072-.349.095-.539.132a40.048 40.048 0 0 0-1.245.269 38.842 38.842 0 0 0-3.184.897c-1.05.347-2.081.744-3.095 1.179L3.936 70.62l4.72 7.046c.212.319.211.318.42.639a41.354 41.354 0 0 1 5.649 13.599 40.81 40.81 0 0 1 .926 8.259c.12 25.854-.308 51.711.003 77.565.02.997.141 1.989.379 2.96.163.664.379 1.315.644 1.947.183.439.39.869.618 1.288 1.522 2.798 3.943 5.06 6.636 6.821a28.7 28.7 0 0 0 1.532.934 31.62 31.62 0 0 0 2.002 1.041 34.981 34.981 0 0 0 6.415 2.306c1.613.407 3.257.699 4.904.945 2.146.321 4.305.557 6.468.749 2.644.235 5.295.4 7.948.518 3.392.151 6.787.224 10.182.231 4.276.009 8.552-.084 12.821-.306 2.899-.15 5.796-.358 8.681-.665 2.377-.252 4.752-.563 7.095-1.027a36.991 36.991 0 0 0 3.85-.969 34.91 34.91 0 0 0 3.121-1.138c.763-.32 1.513-.668 2.248-1.043a29.968 29.968 0 0 0 1.774-.982c.449-.268.89-.549 1.321-.842 2.541-1.722 4.814-3.905 6.265-6.573.228-.419.435-.849.618-1.288a13.13 13.13 0 0 0 1.024-5.133V67.243c-.798-.401-1.637-.731-2.479-1.036a51.276 51.276 0 0 0-3.624-1.143c-3.087-.864-6.232-1.536-9.39-2.113a169.969 169.969 0 0 0-13.283-1.865 194.137 194.137 0 0 0-18.428-1.001l-1.641-.003z" fill-rule="nonzero"/><path d="M88.743 87.294c5.84-.487 11.03-1.141 15.294-1.927-4.264.786-9.454 1.44-15.294 1.927zm12.208 3.087zm0 4.492zm0 4.493zm0 4.493zm-12.208 5.898c5.84-.487 11.03-1.141 15.294-1.927-4.264.786-9.454 1.44-15.294 1.927zm12.208 3.087zm0 4.492zm0 4.493zm0 4.492zm-12.208 5.899c5.84-.487 11.03-1.141 15.294-1.927-4.264.786-9.454 1.44-15.294 1.927zm12.208 3.086zm0 4.493zm0 4.493zm0 4.492zm-12.208 5.898c5.84-.486 11.03-1.14 15.294-1.926-4.264.786-9.454 1.44-15.294 1.926zm12.208 3.087zm0 4.493zm0 4.492zm0 4.493zm-12.208 5.898c5.84-.486 11.03-1.14 15.294-1.927-4.264.787-9.454 1.441-15.294 1.927z" fill="none"/><path d="M144.961 7.645c0 3.822 9.715 6.925 21.681 6.925 9.238 0 17.135-1.849 20.255-4.452.921-.768 6.061 3.523 6.061 2.651" fill="none" stroke-width="2"/><path d="M167.15.001a89.25 89.25 0 0 1 4.988.169c1.263.08 2.524.19 3.78.337 1.845.216 3.684.509 5.49.938 1.394.331 2.78.742 4.083 1.329.692.311 1.364.674 1.97 1.124.485.361.93.781 1.276 1.271.133.188.247.386.35.59l.012.025c.092.029.184.059.276.091a8.32 8.32 0 0 1 1.547.743c1.234.766 2.241 1.836 3.036 3.016.419.622.788 1.28 1.08 1.967l.024.06c.074.267.118.335.093.616a1.373 1.373 0 0 1-.652 1.035c-.073.046-.158.074-.237.111a1.649 1.649 0 0 0-.119.146c-.166.233-.3.484-.421.741-.152.324-.282.657-.401.994-.362 1.026-.62 2.083-.85 3.143-.159.755-.316 1.509-.469 2.264-.316 1.591-.619 3.189-.762 4.804-.102 1.166-.105 2.334-.091 3.503.02 1.168.047 2.337.068 3.506.018 1.094.03 2.188.035 3.282.007 1.429.001 2.858-.002 4.286-.007 2.568-.019 5.135-.034 7.703-.046 8.036-.119 16.071-.199 24.107-.22 21.993-.501 43.987-.801 65.979-.11 8.122-.223 16.243-.34 24.364l-.075 5.178c-.022 1.503-.097 3.006-.063 4.509a2.696 2.696 0 0 0 .116.697c.148.471.435.89.775 1.253.519.556 1.157 1.003 1.808 1.404.25.154.504.301.76.444.381.213.767.416 1.155.616.473.245.948.486 1.421.732a25.87 25.87 0 0 1 1.262.697c.184.11.365.222.543.34.888.583 1.743 1.311 2.155 2.292a3.147 3.147 0 0 1 .247 1.146 296.84 296.84 0 0 1 0 6.188 5.595 5.595 0 0 1-.324 1.747c-.562 1.57-1.764 2.851-3.096 3.866a15.19 15.19 0 0 1-.732.524c-.325.219-.657.427-.996.625-.427.251-.864.486-1.308.708-.55.275-1.11.53-1.677.769-.781.329-1.576.626-2.379.899a45.4 45.4 0 0 1-2.92.879c-3.108.828-6.295 1.374-9.497 1.729a85.405 85.405 0 0 1-11.741.47 79.968 79.968 0 0 1-10.159-.901c-2.817-.439-5.615-1.043-8.328-1.9a38.553 38.553 0 0 1-2.461-.865 31.207 31.207 0 0 1-1.979-.854 23.572 23.572 0 0 1-1.562-.813 19.009 19.009 0 0 1-1.013-.618 16.035 16.035 0 0 1-.747-.519 13.864 13.864 0 0 1-.688-.541c-1.117-.94-2.097-2.092-2.585-3.458a5.542 5.542 0 0 1-.324-1.747c-.018-2.043-.001-4.086-.001-6.129.005-.247.03-.49.088-.73.038-.157.088-.311.149-.46.389-.965 1.198-1.696 2.035-2.31.176-.129.356-.253.537-.376.242-.165.489-.325.735-.484.37-.238.74-.475 1.106-.717a21.042 21.042 0 0 0 1.049-.74c.838-.635 1.634-1.397 2.054-2.357.069-.157.127-.318.174-.483.104-.365.145-.738.15-1.116V7.234c.013-.108.013-.218.04-.323.051-.201.158-.385.262-.563.129-.222.271-.438.424-.646.683-.929 1.582-1.691 2.573-2.305a14.807 14.807 0 0 1 2.432-1.191 23.169 23.169 0 0 1 2.808-.874 37.995 37.995 0 0 1 4.16-.764c1.446-.19 2.9-.317 4.357-.404 1.539-.092 3.08-.136 4.622-.157.643-.006 1.285-.008 1.928-.006zm-.972 2.728c-1.51.009-3.02.038-4.528.112a67.148 67.148 0 0 0-3.413.247c-1.6.159-3.198.382-4.767.728-1.254.277-2.499.632-3.675 1.143-1.335.58-2.645 1.392-3.417 2.624v164.271a6.938 6.938 0 0 1-.25 1.822c-.119.416-.28.821-.479 1.207a7.196 7.196 0 0 1-.506.831c-.697.992-1.628 1.804-2.618 2.518-.796.573-1.636 1.086-2.456 1.627-.158.106-.315.213-.47.322-.354.255-.712.519-.998.845-.139.158-.277.343-.298.555-.121 2.049-.054 4.108 0 6.16.006.144.022.286.049.427.165.84.701 1.575 1.303 2.183a9.221 9.221 0 0 0 .852.755c1.017.8 2.167 1.436 3.347 1.983 1.591.739 3.259 1.318 4.95 1.803 2.448.702 4.956 1.204 7.481 1.572 3.27.476 6.575.723 9.881.783a82.852 82.852 0 0 0 10.209-.433c2.876-.305 5.74-.769 8.544-1.461 1.975-.488 3.928-1.087 5.797-1.874.714-.3 1.415-.629 2.094-.996a15.588 15.588 0 0 0 1.852-1.161c.187-.139.37-.282.548-.432.165-.138.325-.282.478-.431.649-.63 1.237-1.401 1.412-2.291a2.91 2.91 0 0 0 .05-.474c.019-2.037.138-4.079-.002-6.112a.72.72 0 0 0-.142-.331 2.288 2.288 0 0 0-.347-.376 6.363 6.363 0 0 0-.842-.614c-.381-.24-.777-.458-1.176-.67-.3-.16-.604-.316-.907-.471-.404-.208-.808-.415-1.21-.626-.248-.132-.248-.131-.496-.266a32.077 32.077 0 0 1-.743-.42 17.4 17.4 0 0 1-.615-.376c-1.32-.842-2.567-1.895-3.244-3.302a5.363 5.363 0 0 1-.326-.861 5.381 5.381 0 0 1-.193-1.34c-.012-1.515.043-3.029.065-4.544l.074-5.177c.072-5.007.142-10.014.212-15.02.295-21.462.579-42.924.814-64.386.087-7.899.167-15.797.233-23.696.062-7.441.114-14.883.119-22.325-.001-.621-.004-1.242-.007-1.863-.007-.783-.016-1.567-.029-2.35-.02-1.171-.049-2.342-.069-3.513-.004-.39-.008-.78-.008-1.17.007-1.094.055-2.184.177-3.272.13-1.15.326-2.293.542-3.431.209-1.098.437-2.192.67-3.285.262-1.232.571-2.461 1.005-3.647.31-.848.684-1.692 1.248-2.414l.04-.049a9.75 9.75 0 0 0-.766-1.158c-.683-.888-1.555-1.687-2.628-2.117a4.837 4.837 0 0 0-.729-.224l-.07-.014-.081-.016-.316-.099c-.094-.056-.196-.101-.283-.167a1.368 1.368 0 0 1-.41-.5c-.073-.152-.091-.284-.134-.434a1.586 1.586 0 0 0-.041-.108c-.156-.339-.439-.609-.735-.837-.562-.434-1.217-.753-1.875-1.025-1.198-.494-2.463-.836-3.732-1.116a47.598 47.598 0 0 0-5.055-.805 69.385 69.385 0 0 0-3.187-.274 86.74 86.74 0 0 0-5.773-.164zm27.715 10.788c.085-.009.168-.026.248-.053l-.248.053z" fill-rule="nonzero"/><path d="M150.343 164.248a.823.823 0 0 1 .155.033c.187.072.371.153.557.227 1.288.503 2.614.905 3.961 1.233.447.109.895.21 1.345.304.245.051.493.093.737.148.039.011.039.011.076.025a.602.602 0 0 1 .349.351.6.6 0 0 1-.357.761.673.673 0 0 1-.353.031 61.559 61.559 0 0 1-.951-.193 37.113 37.113 0 0 1-3.928-1.058 26.913 26.913 0 0 1-1.352-.491c-.194-.077-.39-.153-.58-.239-.036-.019-.035-.019-.069-.04a.662.662 0 0 1-.188-.196.592.592 0 0 1 .182-.788.654.654 0 0 1 .416-.108zm-.036-4.495a.734.734 0 0 1 .212.043c.219.088.436.18.656.266.166.064.332.127.499.188.079.029.162.054.239.09a.635.635 0 0 1 .275.27.594.594 0 0 1 .062.217.613.613 0 0 1-.537.642.66.66 0 0 1-.286-.026c-.183-.064-.364-.133-.546-.201a26.698 26.698 0 0 1-.68-.27c-.124-.051-.246-.094-.344-.184a.591.591 0 0 1 .059-.918.65.65 0 0 1 .391-.117zm0-4.492a.7.7 0 0 1 .212.042c.219.089.436.18.656.267.166.063.332.127.499.187.08.029.162.054.239.091a.626.626 0 0 1 .283.285.596.596 0 0 1-.277.78.638.638 0 0 1-.492.037c-.242-.083-.48-.175-.719-.267-.169-.067-.339-.134-.507-.204-.065-.027-.132-.053-.196-.083a.622.622 0 0 1-.268-.252.588.588 0 0 1 .272-.821.654.654 0 0 1 .262-.062h.036zm0-4.493a.702.702 0 0 1 .212.043c.219.088.436.18.656.266.166.064.332.127.499.188.079.029.162.054.239.09a.612.612 0 0 1 .283.285.595.595 0 0 1-.277.78.638.638 0 0 1-.492.037c-.183-.063-.364-.132-.546-.2a31.01 31.01 0 0 1-.68-.27c-.124-.051-.246-.094-.344-.184a.591.591 0 0 1 .059-.918.666.666 0 0 1 .391-.117zm0-4.493a.734.734 0 0 1 .212.043c.219.089.436.18.656.267.166.063.332.126.499.187.079.029.162.054.239.091a.626.626 0 0 1 .283.285.596.596 0 0 1-.277.78.66.66 0 0 1-.224.066.676.676 0 0 1-.268-.029c-.183-.063-.364-.132-.546-.201a23.44 23.44 0 0 1-.68-.27c-.124-.051-.245-.093-.344-.183a.59.59 0 0 1 .059-.918.651.651 0 0 1 .391-.118zm.036-4.49a.806.806 0 0 1 .155.033c.187.072.371.153.557.227 1.288.503 2.614.905 3.961 1.233.447.109.895.21 1.345.304.245.051.493.093.737.148.039.011.038.011.076.025a.605.605 0 0 1 .349.351.6.6 0 0 1-.357.762.673.673 0 0 1-.353.03 53.381 53.381 0 0 1-.951-.193c-1.99-.431-3.952-.986-5.824-1.772-.036-.016-.036-.016-.071-.035a.623.623 0 0 1-.24-.251.596.596 0 0 1 .268-.795.673.673 0 0 1 .268-.069l.08.002zm-.036-4.495a.734.734 0 0 1 .212.043c.219.088.436.18.656.266.166.064.332.127.499.188.079.029.162.054.239.09a.626.626 0 0 1 .283.286.594.594 0 0 1-.277.779.657.657 0 0 1-.492.038c-.183-.063-.364-.132-.546-.201a23.44 23.44 0 0 1-.68-.27c-.124-.051-.245-.094-.344-.183a.59.59 0 0 1 .059-.918.651.651 0 0 1 .391-.118zm0-4.492a.673.673 0 0 1 .212.043c.219.088.436.18.656.266.166.064.332.127.499.188.079.028.162.053.239.09a.626.626 0 0 1 .283.285.596.596 0 0 1-.277.78.638.638 0 0 1-.492.037c-.183-.063-.364-.132-.546-.2a26.723 26.723 0 0 1-.68-.271c-.124-.051-.246-.093-.344-.183a.59.59 0 0 1 .059-.918.651.651 0 0 1 .391-.117zm0-4.493a.734.734 0 0 1 .212.043c.219.088.436.18.656.266.166.064.332.127.499.188.079.029.162.054.239.09a.631.631 0 0 1 .283.285.595.595 0 0 1-.277.78.657.657 0 0 1-.492.038c-.183-.063-.364-.133-.546-.201a26.698 26.698 0 0 1-.68-.27c-.124-.051-.245-.094-.344-.184a.592.592 0 0 1 .059-.918.664.664 0 0 1 .391-.117zm0-4.492a.673.673 0 0 1 .212.043c.219.088.436.179.656.266.166.064.332.127.499.187.079.029.162.054.239.091a.635.635 0 0 1 .275.269.594.594 0 0 1 .062.217.614.614 0 0 1-.536.643.68.68 0 0 1-.287-.027c-.183-.063-.364-.132-.546-.2a26.723 26.723 0 0 1-.68-.271c-.124-.051-.245-.093-.344-.183a.591.591 0 0 1 .059-.918.651.651 0 0 1 .391-.117zm-.634-3.985a.6.6 0 0 1 .322-.631.669.669 0 0 1 .268-.069l.08.002a.823.823 0 0 1 .155.033c.187.072.371.153.557.227 1.288.502 2.614.905 3.961 1.233.447.109.895.21 1.345.304.246.051.493.093.737.148.039.011.038.011.076.025a.602.602 0 0 1 .349.351.576.576 0 0 1 .028.295.605.605 0 0 1-.385.659.673.673 0 0 1-.353.03 61.533 61.533 0 0 1-.951-.192c-1.99-.432-3.952-.987-5.824-1.773-.036-.016-.036-.016-.071-.035a.623.623 0 0 1-.24-.251.57.57 0 0 1-.054-.356zm.634-5.193a.734.734 0 0 1 .212.043c.219.088.436.18.656.266.166.064.332.127.499.188.079.029.162.054.239.09a.635.635 0 0 1 .275.27.594.594 0 0 1 .062.217.613.613 0 0 1-.537.642.66.66 0 0 1-.286-.026c-.183-.063-.364-.133-.546-.201a26.698 26.698 0 0 1-.68-.27c-.124-.051-.246-.094-.344-.184a.591.591 0 0 1 .059-.918.65.65 0 0 1 .391-.117zm0-4.492a.673.673 0 0 1 .212.043c.219.088.436.179.656.266.166.063.332.127.499.187.079.029.162.054.239.091a.635.635 0 0 1 .275.269.593.593 0 0 1 .062.218.614.614 0 0 1-.537.642.677.677 0 0 1-.286-.027c-.183-.063-.364-.132-.546-.2a26.723 26.723 0 0 1-.68-.271c-.124-.051-.245-.093-.344-.183a.591.591 0 0 1 .059-.918.651.651 0 0 1 .391-.117zm0-4.493a.702.702 0 0 1 .212.043c.219.088.436.18.656.266.166.064.332.127.499.188.079.029.162.054.239.09a.612.612 0 0 1 .283.285.595.595 0 0 1-.277.78.638.638 0 0 1-.492.037c-.183-.063-.364-.132-.546-.2a31.01 31.01 0 0 1-.68-.27c-.124-.051-.246-.094-.344-.184a.591.591 0 0 1 .059-.918.666.666 0 0 1 .391-.117zm0-4.492a.7.7 0 0 1 .212.042c.219.089.436.18.656.267.166.063.332.126.499.187.079.029.162.054.239.091a.626.626 0 0 1 .283.285.596.596 0 0 1-.277.78.66.66 0 0 1-.224.066.676.676 0 0 1-.268-.029c-.183-.063-.364-.132-.546-.2a26.723 26.723 0 0 1-.68-.271c-.124-.051-.245-.093-.344-.183a.59.59 0 0 1 .059-.918.651.651 0 0 1 .391-.117zm.036-4.491a.823.823 0 0 1 .155.033c.187.072.371.153.557.227 1.288.502 2.614.905 3.961 1.233.447.109.895.21 1.345.304.246.051.493.093.737.148.039.011.038.011.076.025a.613.613 0 0 1 .349.351.6.6 0 0 1-.357.762.673.673 0 0 1-.353.03 61.559 61.559 0 0 1-.951-.193c-1.99-.431-3.951-.987-5.824-1.772-.037-.016-.036-.016-.071-.035a.656.656 0 0 1-.201-.184.593.593 0 0 1 .161-.821.664.664 0 0 1 .336-.11l.08.002zm-.036-4.495a.734.734 0 0 1 .212.043c.219.088.436.18.656.266.166.064.332.127.499.188.079.029.162.054.239.09a.626.626 0 0 1 .283.286.594.594 0 0 1-.277.779.657.657 0 0 1-.492.038c-.183-.063-.364-.132-.546-.201a23.44 23.44 0 0 1-.68-.27c-.124-.051-.245-.094-.344-.183a.59.59 0 0 1 .059-.918.651.651 0 0 1 .391-.118zm0-4.492a.673.673 0 0 1 .212.043c.219.088.436.18.656.266.166.064.332.127.499.188.079.029.162.053.239.09a.635.635 0 0 1 .275.269.593.593 0 0 1 .062.218.614.614 0 0 1-.536.642.664.664 0 0 1-.287-.027c-.183-.063-.364-.132-.546-.2a26.723 26.723 0 0 1-.68-.271c-.124-.051-.245-.093-.344-.183a.591.591 0 0 1 .059-.918.666.666 0 0 1 .391-.117zm0-4.493a.734.734 0 0 1 .212.043c.219.088.436.18.656.266.166.064.332.127.499.188.079.029.162.054.239.09a.635.635 0 0 1 .275.27.594.594 0 0 1 .062.217.613.613 0 0 1-.537.642.66.66 0 0 1-.286-.026c-.183-.063-.364-.133-.546-.201a23.44 23.44 0 0 1-.68-.27c-.124-.051-.246-.094-.344-.184a.592.592 0 0 1 .059-.918.65.65 0 0 1 .391-.117zm0-4.492a.673.673 0 0 1 .212.043c.219.088.436.179.656.266.166.064.332.127.499.188.08.028.162.053.239.09a.626.626 0 0 1 .283.285.596.596 0 0 1-.277.78.638.638 0 0 1-.492.037c-.183-.063-.364-.132-.546-.2a26.723 26.723 0 0 1-.68-.271c-.124-.051-.245-.093-.344-.183a.591.591 0 0 1 .059-.918.651.651 0 0 1 .391-.117zm.036-4.491a.91.91 0 0 1 .155.033c.187.072.371.153.557.227 1.288.503 2.614.905 3.961 1.234.447.108.895.209 1.345.303.246.051.493.093.737.148.039.012.038.011.076.025a.613.613 0 0 1 .349.351.6.6 0 0 1-.357.762.673.673 0 0 1-.353.03 51.612 51.612 0 0 1-.951-.192c-1.99-.432-3.951-.988-5.824-1.772-.037-.017-.036-.017-.071-.036a.63.63 0 0 1-.24-.251.594.594 0 0 1 .268-.794.687.687 0 0 1 .268-.07l.08.002zm-.036-4.494a.7.7 0 0 1 .212.042c.219.089.436.18.656.267.166.063.332.127.499.187.08.029.162.054.239.091a.626.626 0 0 1 .283.285.596.596 0 0 1-.277.78.66.66 0 0 1-.224.066.676.676 0 0 1-.268-.029c-.242-.083-.48-.175-.719-.267-.169-.067-.339-.134-.507-.204-.065-.027-.132-.053-.196-.083a.62.62 0 0 1-.276-.268.588.588 0 0 1 .296-.812.674.674 0 0 1 .246-.056l.036.001zm0-4.493a.702.702 0 0 1 .212.043c.219.088.436.18.656.266.166.064.332.127.499.188.079.029.162.054.239.09a.612.612 0 0 1 .283.285.596.596 0 0 1-.277.78.638.638 0 0 1-.492.037c-.183-.063-.364-.132-.546-.2a31.01 31.01 0 0 1-.68-.27c-.124-.052-.246-.094-.344-.184a.591.591 0 0 1 .059-.918.666.666 0 0 1 .391-.117zm0-4.493a.734.734 0 0 1 .212.043c.219.089.436.18.656.266.166.064.332.127.499.188.079.029.162.054.239.091a.626.626 0 0 1 .283.285.594.594 0 0 1-.277.779.657.657 0 0 1-.492.038c-.183-.063-.364-.132-.546-.201a23.44 23.44 0 0 1-.68-.27c-.124-.051-.245-.094-.344-.183a.59.59 0 0 1 .059-.918.651.651 0 0 1 .391-.118zm0-4.492a.673.673 0 0 1 .212.043c.219.088.436.18.656.266.166.064.332.127.499.188.079.029.162.053.239.09a.626.626 0 0 1 .283.285.596.596 0 0 1-.277.78.638.638 0 0 1-.492.037c-.183-.063-.364-.132-.546-.2a31.01 31.01 0 0 1-.68-.27c-.124-.052-.246-.094-.344-.184a.591.591 0 0 1 .059-.918.666.666 0 0 1 .391-.117zm.036-4.491a.825.825 0 0 1 .155.034c.187.071.371.152.557.227a31.43 31.43 0 0 0 3.961 1.233c.447.109.895.209 1.345.303.246.051.493.093.737.149.039.011.038.01.076.024a.67.67 0 0 1 .227.155.592.592 0 0 1 .122.197.6.6 0 0 1-.357.761.673.673 0 0 1-.353.031 61.559 61.559 0 0 1-.951-.193c-1.99-.432-3.951-.987-5.824-1.772-.037-.017-.036-.017-.071-.035a.638.638 0 0 1-.24-.252.594.594 0 0 1 .268-.794.687.687 0 0 1 .268-.07l.08.002zm-.036-4.494a.673.673 0 0 1 .212.043c.219.088.436.18.656.266.166.064.332.127.499.188.079.028.162.053.239.09a.635.635 0 0 1 .275.269.593.593 0 0 1 .062.218.613.613 0 0 1-.537.642.677.677 0 0 1-.286-.027c-.183-.063-.364-.132-.546-.2a26.723 26.723 0 0 1-.68-.271c-.124-.051-.246-.093-.344-.183a.59.59 0 0 1 .059-.918.651.651 0 0 1 .391-.117zm0-4.493a.734.734 0 0 1 .212.043c.219.088.436.18.656.266.166.064.332.127.499.188.079.029.162.054.239.09a.635.635 0 0 1 .275.27.594.594 0 0 1 .062.217.613.613 0 0 1-.537.642.66.66 0 0 1-.286-.026c-.183-.063-.364-.133-.546-.201a26.698 26.698 0 0 1-.68-.27c-.124-.051-.245-.094-.344-.184a.592.592 0 0 1 .059-.918.664.664 0 0 1 .391-.117zm0-4.492a.673.673 0 0 1 .212.043c.219.088.436.179.656.266.166.064.332.127.499.187.079.029.162.054.239.091a.635.635 0 0 1 .275.269.594.594 0 0 1 .062.217.612.612 0 0 1-.536.642.664.664 0 0 1-.287-.026c-.183-.063-.364-.132-.546-.2a26.723 26.723 0 0 1-.68-.271c-.124-.051-.245-.093-.344-.183a.591.591 0 0 1 .059-.918.651.651 0 0 1 .391-.117zm0-4.493a.702.702 0 0 1 .212.043c.219.088.436.18.656.266.166.064.332.127.499.188.079.029.162.054.239.09a.612.612 0 0 1 .283.285.595.595 0 0 1-.277.78.638.638 0 0 1-.492.037c-.183-.063-.364-.132-.546-.2a31.01 31.01 0 0 1-.68-.27c-.124-.051-.246-.094-.344-.184a.591.591 0 0 1 .059-.918.666.666 0 0 1 .391-.117zm.036-4.49a.823.823 0 0 1 .155.033c.187.071.371.152.557.227 1.288.502 2.615.904 3.961 1.233.447.109.895.21 1.345.303.246.051.493.093.737.149.039.011.038.011.076.024a.592.592 0 0 1 .132 1.039.651.651 0 0 1-.493.105 61.559 61.559 0 0 1-.951-.193c-1.99-.432-3.951-.987-5.824-1.772-.037-.017-.036-.017-.071-.035a.638.638 0 0 1-.24-.252.594.594 0 0 1 .268-.794.669.669 0 0 1 .268-.069c.04-.001.039-.001.08.002z"/></g>
  </symbol>
  <symbol id="Construction" viewBox="0 0 200 200">
    <path d="M20 121h70v39H20v-39zm40 4H50v25h10v-25zm20 0H70v14h10v-14zm-40 0H30v14h10v-14zm50-6H20V20h70v99zM40 94H30v20h10V94zm20 0H50v20h10V94zm20 0H70v20h10V94zM40 64H30v20h10V64zm40 0H70v20h10V64zm-20 0H50v20h10V64zM40 34H30v20h10V34zm40 0H70v20h10V34zm-20 0H50v20h10V34zm30-16H20v-8h70v8z"/><path d="M10 20h90v10H10zM10 150h90v10H10z"/><path d="M152.829 122h8.53c10.202 0 19.238 7.433 22.36 18.393 4.8 16.853 11.179 49.091 11.281 49.607H70.18s6.442-32.619 11.281-49.607C84.583 129.433 93.618 122 103.821 122h8.529c4.147 22.4 8.803 42.385 20.24 58 11.442-15.639 16.096-35.615 20.239-58z"/><path d="M127.042 180l3.051-31.32h4.993l3.051 31.32h-11.095z"/><path d="M126.287 141.262c1.526 1.079 3.785 1.763 6.303 1.763s4.777-.684 6.303-1.763c-.547 3.653-1.414 8.264-2.451 9.659-1.577 2.119-6.128 2.119-7.705 0-1.037-1.395-1.903-6.006-2.45-9.659z"/><path d="M160.851 96.174c.025.515.04 1.036.045 1.562 1.068-1.664 1.804-2.465 3.101-2.465 1.458 0 5.234 3.574 5.234 6.514 0 2.972-3.053 9.431-5.234 11.317-1.224 1.058-3.269 1.557-5.013 1.386-4.109 13.097-17.596 22.389-26.394 22.389-8.798 0-22.285-9.292-26.395-22.389-1.744.171-3.789-.328-5.012-1.386-2.181-1.886-5.235-8.345-5.235-11.317 0-2.94 3.776-6.514 5.235-6.514 1.297 0 2.033.801 3.1 2.465.006-.526.021-1.047.045-1.562 6.723 2.323 16.891 3.804 28.262 3.804 11.37 0 21.538-1.481 28.261-3.804z" fill="none" stroke-width="5.5"/><path d="M163.032 75.799c3.915 2.13 6.199 4.692 6.199 7.448v6.274c0 5.771-16.418 10.457-36.641 10.457s-36.642-4.686-36.642-10.457v-6.274c0-2.756 2.285-5.318 6.2-7.448a23.42 23.42 0 0 0-.093 2.094c0 .583.096 1.144.279 1.682-.343.586-.523 1.191-.523 1.809 0 5.46 14.01 9.894 31.267 9.894 17.257 0 31.268-4.434 31.268-9.894 0-.971-.443-1.909-1.268-2.795.031-.228.046-.461.046-.696 0-.705-.031-1.403-.092-2.094z"/><path d="M126.483 51.659a34.77 34.77 0 0 1 6.107-.536c2.091 0 4.133.184 6.107.536v22.317c0 1.039.376 2.035 1.046 2.77.671.734 1.58 1.147 2.527 1.147h.002c1.488 0 2.785-1.11 3.146-2.692l4.424-19.393c8.019 4.826 13.282 12.921 13.282 22.085 0 14.774-61.069 14.774-61.069 0 0-9.164 5.264-17.259 13.283-22.085l4.424 19.393c.361 1.582 1.658 2.692 3.146 2.692h.001c.948 0 1.857-.413 2.527-1.147.67-.735 1.047-1.731 1.047-2.77V51.659z"/>
  </symbol>
  <symbol id="Computer" viewBox="0 0 200 200">
    <path d="M180 22.641c0-3.353-1.332-6.568-3.702-8.939A12.644 12.644 0 0 0 167.359 10H32.641a12.644 12.644 0 0 0-8.939 3.702A12.644 12.644 0 0 0 20 22.641v94.718c0 3.353 1.332 6.568 3.702 8.939A12.644 12.644 0 0 0 32.641 130h134.718c3.353 0 6.568-1.332 8.939-3.702a12.644 12.644 0 0 0 3.702-8.939V22.641zM170 20H30v100h140V20z"/><path d="M87.525 136.65A5.559 5.559 0 0 0 90 132.025V120h20v12.025c0 1.859.929 3.594 2.475 4.625l12.249 8.166A5.56 5.56 0 0 1 121.641 155H78.359a5.559 5.559 0 0 1-3.083-10.184l12.249-8.166z"/><path d="M81.263 54.146L60.69 66.332 81.488 79.86v8.162L52.674 68.494v-4.435l28.589-17.478v7.565zM86.929 91.376l20.444-51.28 5.762 3.429-20.379 51.056-5.827-3.205zM118.995 54.146v-7.565l28.75 17.478v4.435L118.93 88.022V79.86l20.702-13.528-20.637-12.186z" fill-rule="nonzero"/><g><path d="M142 166.5c0-3.587-2.913-6.5-6.5-6.5h-71a6.504 6.504 0 0 0-6.5 6.5v13c0 3.587 2.913 6.5 6.5 6.5h71c3.587 0 6.5-2.913 6.5-6.5v-13z" fill="none" stroke-width="3.5"/><path d="M70 166.25c0-.69-.56-1.25-1.25-1.25h-2.5c-.69 0-1.25.56-1.25 1.25v2.5c0 .69.56 1.25 1.25 1.25h2.5c.69 0 1.25-.56 1.25-1.25v-2.5zM76.5 166.25c0-.69-.56-1.25-1.25-1.25h-2.5c-.69 0-1.25.56-1.25 1.25v2.5c0 .69.56 1.25 1.25 1.25h2.5c.69 0 1.25-.56 1.25-1.25v-2.5zM83 166.25c0-.69-.56-1.25-1.25-1.25h-2.5c-.69 0-1.25.56-1.25 1.25v2.5c0 .69.56 1.25 1.25 1.25h2.5c.69 0 1.25-.56 1.25-1.25v-2.5zM89.5 166.25c0-.69-.56-1.25-1.25-1.25h-2.5c-.69 0-1.25.56-1.25 1.25v2.5c0 .69.56 1.25 1.25 1.25h2.5c.69 0 1.25-.56 1.25-1.25v-2.5zM96 166.25c0-.69-.56-1.25-1.25-1.25h-2.5c-.69 0-1.25.56-1.25 1.25v2.5c0 .69.56 1.25 1.25 1.25h2.5c.69 0 1.25-.56 1.25-1.25v-2.5zM102.5 166.25c0-.69-.56-1.25-1.25-1.25h-2.5c-.69 0-1.25.56-1.25 1.25v2.5c0 .69.56 1.25 1.25 1.25h2.5c.69 0 1.25-.56 1.25-1.25v-2.5zM109 166.25c0-.69-.56-1.25-1.25-1.25h-2.5c-.69 0-1.25.56-1.25 1.25v2.5c0 .69.56 1.25 1.25 1.25h2.5c.69 0 1.25-.56 1.25-1.25v-2.5zM115.5 166.25c0-.69-.56-1.25-1.25-1.25h-2.5c-.69 0-1.25.56-1.25 1.25v2.5c0 .69.56 1.25 1.25 1.25h2.5c.69 0 1.25-.56 1.25-1.25v-2.5zM122 166.25c0-.69-.56-1.25-1.25-1.25h-2.5c-.69 0-1.25.56-1.25 1.25v2.5c0 .69.56 1.25 1.25 1.25h2.5c.69 0 1.25-.56 1.25-1.25v-2.5zM128.5 166.25c0-.69-.56-1.25-1.25-1.25h-2.5c-.69 0-1.25.56-1.25 1.25v2.5c0 .69.56 1.25 1.25 1.25h2.5c.69 0 1.25-.56 1.25-1.25v-2.5zM135 166.25c0-.69-.56-1.25-1.25-1.25h-2.5c-.69 0-1.25.56-1.25 1.25v2.5c0 .69.56 1.25 1.25 1.25h2.5c.69 0 1.25-.56 1.25-1.25v-2.5z"/><g><path d="M73 172.25c0-.69-.56-1.25-1.25-1.25h-5.5c-.69 0-1.25.56-1.25 1.25v2.5c0 .69.56 1.25 1.25 1.25h5.5c.69 0 1.25-.56 1.25-1.25v-2.5zM79.5 172.25c0-.69-.56-1.25-1.25-1.25h-2.5c-.69 0-1.25.56-1.25 1.25v2.5c0 .69.56 1.25 1.25 1.25h2.5c.69 0 1.25-.56 1.25-1.25v-2.5zM86 172.25c0-.69-.56-1.25-1.25-1.25h-2.5c-.69 0-1.25.56-1.25 1.25v2.5c0 .69.56 1.25 1.25 1.25h2.5c.69 0 1.25-.56 1.25-1.25v-2.5zM92.5 172.25c0-.69-.56-1.25-1.25-1.25h-2.5c-.69 0-1.25.56-1.25 1.25v2.5c0 .69.56 1.25 1.25 1.25h2.5c.69 0 1.25-.56 1.25-1.25v-2.5zM99 172.25c0-.69-.56-1.25-1.25-1.25h-2.5c-.69 0-1.25.56-1.25 1.25v2.5c0 .69.56 1.25 1.25 1.25h2.5c.69 0 1.25-.56 1.25-1.25v-2.5zM105.5 172.25c0-.69-.56-1.25-1.25-1.25h-2.5c-.69 0-1.25.56-1.25 1.25v2.5c0 .69.56 1.25 1.25 1.25h2.5c.69 0 1.25-.56 1.25-1.25v-2.5zM112 172.25c0-.69-.56-1.25-1.25-1.25h-2.5c-.69 0-1.25.56-1.25 1.25v2.5c0 .69.56 1.25 1.25 1.25h2.5c.69 0 1.25-.56 1.25-1.25v-2.5zM118.5 172.25c0-.69-.56-1.25-1.25-1.25h-2.5c-.69 0-1.25.56-1.25 1.25v2.5c0 .69.56 1.25 1.25 1.25h2.5c.69 0 1.25-.56 1.25-1.25v-2.5zM125 172.25c0-.69-.56-1.25-1.25-1.25h-2.5c-.69 0-1.25.56-1.25 1.25v2.5c0 .69.56 1.25 1.25 1.25h2.5c.69 0 1.25-.56 1.25-1.25v-2.5zM135 172.25c0-.69-.56-1.25-1.25-1.25h-6c-.69 0-1.25.56-1.25 1.25v2.5c0 .69.56 1.25 1.25 1.25h6c.69 0 1.25-.56 1.25-1.25v-2.5z"/></g><g><path d="M70 178.25c0-.69-.56-1.25-1.25-1.25h-2.5c-.69 0-1.25.56-1.25 1.25v2.5c0 .69.56 1.25 1.25 1.25h2.5c.69 0 1.25-.56 1.25-1.25v-2.5zM76.5 178.25c0-.69-.56-1.25-1.25-1.25h-2.5c-.69 0-1.25.56-1.25 1.25v2.5c0 .69.56 1.25 1.25 1.25h2.5c.69 0 1.25-.56 1.25-1.25v-2.5zM83 178.25c0-.69-.56-1.25-1.25-1.25h-2.5c-.69 0-1.25.56-1.25 1.25v2.5c0 .69.56 1.25 1.25 1.25h2.5c.69 0 1.25-.56 1.25-1.25v-2.5zM115 178.25c0-.69-.56-1.25-1.25-1.25h-28c-.69 0-1.25.56-1.25 1.25v2.5c0 .69.56 1.25 1.25 1.25h28c.69 0 1.25-.56 1.25-1.25v-2.5zM122 178.25c0-.69-.56-1.25-1.25-1.25h-2.5c-.69 0-1.25.56-1.25 1.25v2.5c0 .69.56 1.25 1.25 1.25h2.5c.69 0 1.25-.56 1.25-1.25v-2.5zM128.5 178.25c0-.69-.56-1.25-1.25-1.25h-2.5c-.69 0-1.25.56-1.25 1.25v2.5c0 .69.56 1.25 1.25 1.25h2.5c.69 0 1.25-.56 1.25-1.25v-2.5zM135 178.25c0-.69-.56-1.25-1.25-1.25h-2.5c-.69 0-1.25.56-1.25 1.25v2.5c0 .69.56 1.25 1.25 1.25h2.5c.69 0 1.25-.56 1.25-1.25v-2.5z"/></g></g>
  </symbol>
  <symbol id="Design" viewBox="0 0 200 200">
    <path d="M119.598 148.237l27.044 27.045 3.34 11.331a100.047 100.047 0 0 1-13.428 6.467l-10.872-15.522a81.707 81.707 0 0 1-15.17 3.462l-3.06 18.702a99.928 99.928 0 0 1-14.904 0l-3.06-18.702a81.707 81.707 0 0 1-15.17-3.462L63.446 193.08a100.047 100.047 0 0 1-13.428-6.467l3.698-12.546c10.416-4.424 19.139-8.325 20.236-9.422l13.992-13.992A52.13 52.13 0 0 0 100 152.058a51.843 51.843 0 0 0 19.598-3.821zM29.713 58.353l22.05 22.049A51.843 51.843 0 0 0 47.942 100c0 6.92 1.353 13.526 3.808 19.568l-11.437 11.437c-1.607 1.607-9.113 19.285-15.545 34.875a100.176 100.176 0 0 1-7.38-9.53l12.714-14.054a81.68 81.68 0 0 1-6.752-14.018l-18.914 1.177a100.109 100.109 0 0 1-3.316-14.53l17.552-7.145a81.705 81.705 0 0 1 0-15.56L1.12 85.075a100.109 100.109 0 0 1 3.316-14.53l18.914 1.177a81.689 81.689 0 0 1 6.363-13.369zm144.037 6.495a81.913 81.913 0 0 1 2.9 6.874l18.914-1.177a100.109 100.109 0 0 1 3.316 14.53l-17.552 7.145a81.705 81.705 0 0 1 0 15.56l17.552 7.145a100.109 100.109 0 0 1-3.316 14.53l-18.914-1.177a81.902 81.902 0 0 1-2.887 6.846l-23.102-23.103A52.106 52.106 0 0 0 152.058 100a52.13 52.13 0 0 0-1.405-12.056l23.097-23.096zM51.3 12.66a100.03 100.03 0 0 1 12.146-5.74l10.872 15.522a81.707 81.707 0 0 1 15.17-3.462L92.548.278a99.928 99.928 0 0 1 14.904 0l3.06 18.702a81.707 81.707 0 0 1 15.17 3.462L136.554 6.92c4.63 1.819 9.119 3.98 13.428 6.467l-3.322 11.271-27.092 27.092A51.867 51.867 0 0 0 100 47.942c-4.137 0-8.162.483-12.021 1.397L51.3 12.66z"/><path d="M184.73 48.554l-28.693 28.694c-3.903 3.902-10.239 3.902-14.142 0l-14.143-14.143c-3.902-3.902-3.902-10.239 0-14.142l-1.882 1.883a9.946 9.946 0 0 0-2.376 3.79l-79.282 79.282-16.687 37.901 5.656 5.656 37.901-16.687 79.282-79.282a9.954 9.954 0 0 0 3.79-2.376l-82.365 82.365C69.202 164.082 20 185 20 185s20.898-49.182 23.505-51.789l99.306-99.307c-3.902 3.903-3.902 10.24 0 14.143l14.142 14.142c3.903 3.902 10.24 3.902 14.143 0l4.223-4.223c-5.195 5.194-12.581 6.243-16.483 2.34l-14.142-14.142c-3.903-3.902-2.854-11.288 2.34-16.483l9.412-9.411c5.195-5.195 18.237-.587 22.14 3.316l2.828 2.828c3.903 3.903 8.511 16.945 3.316 22.14zm-43.976 31.248l-75.329 75.329-9.778 2.457 1.914-9.796 75.557-75.556 6.894 6.894c.239.239.487.463.742.672zm-7.99-7.92l-75.589 75.59-9.306 2.338 2-10.235 75.329-75.329c.209.255.433.502.672.742l6.894 6.894zm-62.035 88.552l-6.094 1.436 1.144-6.385 75.373-75.374a10.013 10.013 0 0 0 8.217 1.683l-78.64 78.64zm52.477-104.803a10.013 10.013 0 0 0 1.683 8.217l-75.374 75.373-6.094 1.436 1.145-6.386 78.64-78.64zm63.956-9.51l-.082.083.082-.083zm-28.283-28.283l-.083.082.083-.082zm28.372 28.191l-.05.051.05-.051zm-28.28-28.28l-.051.05.051-.05zm28.368 28.186l-.041.044.041-.044zm-28.274-28.274l-.044.041.044-.041zm28.36 28.179l-.035.039.035-.039zM159.16 17.575l-.039.035.039-.035zm28.351 28.17l-.03.033.03-.033zm-28.256-28.256l-.033.03.033-.03zm28.339 28.16l-.024.027.024-.027zm-28.243-28.243l-.027.024.027-.024zm28.325 28.146l-.017.02.017-.02zm-28.228-28.228l-.02.017.02-.017zm28.309 28.13l-.01.012.01-.012zm-28.211-28.211l-.012.01.012-.01zm28.29 28.113l-.001.002.001-.002zm-28.192-28.192l-.002.001.002-.001z"/><clipPath id="a"><path d="M136.929 103.645L193.284 160 165 188.284l-56.355-56.355 28.284-28.284zm-35.574-35.574L73.071 96.355 16.716 40 45 11.716l56.355 56.355z"/></clipPath><g clip-path="url(#a)"><path d="M45 11.716L16.716 40 165 188.284 193.284 160 45 11.716z" fill="none" stroke-width="3.5"/><path d="M181.291 148.006a1.544 1.544 0 0 0-2.181 0l-4.89 4.891a1.541 1.541 0 0 0 0 2.18l2.18 2.181a1.543 1.543 0 0 0 2.181 0l4.89-4.89a1.543 1.543 0 0 0 0-2.181l-2.18-2.181zM172.568 139.284a1.543 1.543 0 0 0-2.181 0l-4.89 4.89a1.543 1.543 0 0 0 0 2.181l2.181 2.181a1.543 1.543 0 0 0 2.18 0l4.891-4.891a1.543 1.543 0 0 0 0-2.181l-2.181-2.18zM163.845 130.561a1.541 1.541 0 0 0-2.18 0l-4.891 4.891a1.543 1.543 0 0 0 0 2.18l2.181 2.181a1.543 1.543 0 0 0 2.181 0l4.89-4.89a1.543 1.543 0 0 0 0-2.181l-2.181-2.181zM155.123 121.839a1.543 1.543 0 0 0-2.181 0l-4.89 4.89a1.543 1.543 0 0 0 0 2.181l2.18 2.18a1.543 1.543 0 0 0 2.181 0l4.891-4.89a1.544 1.544 0 0 0 0-2.181l-2.181-2.18zM146.4 113.116a1.541 1.541 0 0 0-2.18 0l-4.891 4.89a1.543 1.543 0 0 0 0 2.181l2.181 2.181a1.544 1.544 0 0 0 2.181 0l4.89-4.891a1.541 1.541 0 0 0 0-2.18l-2.181-2.181zM137.678 104.393a1.544 1.544 0 0 0-2.181 0l-4.89 4.891a1.541 1.541 0 0 0 0 2.18l2.18 2.181a1.543 1.543 0 0 0 2.181 0l4.89-4.89a1.543 1.543 0 0 0 0-2.181l-2.18-2.181zM128.955 95.671a1.543 1.543 0 0 0-2.181 0l-4.89 4.89a1.543 1.543 0 0 0 0 2.181l2.181 2.181a1.543 1.543 0 0 0 2.18 0l4.891-4.891a1.544 1.544 0 0 0 0-2.181l-2.181-2.18zM120.232 86.948a1.541 1.541 0 0 0-2.18 0l-4.891 4.891a1.543 1.543 0 0 0 0 2.18l2.181 2.181a1.543 1.543 0 0 0 2.181 0l4.89-4.891a1.541 1.541 0 0 0 0-2.18l-2.181-2.181zM111.51 78.226a1.543 1.543 0 0 0-2.181 0l-4.89 4.89a1.543 1.543 0 0 0 0 2.181l2.18 2.18a1.543 1.543 0 0 0 2.181 0l4.891-4.89a1.544 1.544 0 0 0 0-2.181l-2.181-2.18zM102.787 69.503a1.541 1.541 0 0 0-2.18 0l-4.891 4.89a1.543 1.543 0 0 0 0 2.181l2.181 2.181a1.543 1.543 0 0 0 2.18 0l4.891-4.891a1.541 1.541 0 0 0 0-2.18l-2.181-2.181zM94.065 60.78a1.544 1.544 0 0 0-2.181 0l-4.89 4.891a1.541 1.541 0 0 0 0 2.18l2.18 2.181a1.543 1.543 0 0 0 2.181 0l4.89-4.89a1.543 1.543 0 0 0 0-2.181l-2.18-2.181zM85.342 52.058a1.543 1.543 0 0 0-2.181 0l-4.89 4.89a1.543 1.543 0 0 0 0 2.181l2.181 2.18a1.541 1.541 0 0 0 2.18 0l4.891-4.89a1.544 1.544 0 0 0 0-2.181l-2.181-2.18zM76.619 43.335a1.541 1.541 0 0 0-2.18 0l-4.891 4.891a1.543 1.543 0 0 0 0 2.18l2.181 2.181a1.543 1.543 0 0 0 2.181 0l4.89-4.891a1.541 1.541 0 0 0 0-2.18l-2.181-2.181zM67.897 34.613a1.543 1.543 0 0 0-2.181 0l-4.89 4.89a1.543 1.543 0 0 0 0 2.181l2.18 2.18a1.543 1.543 0 0 0 2.181 0l4.89-4.89a1.543 1.543 0 0 0 0-2.181l-2.18-2.18zM59.174 25.89a1.541 1.541 0 0 0-2.18 0l-4.891 4.89a1.543 1.543 0 0 0 0 2.181l2.181 2.181a1.543 1.543 0 0 0 2.18 0l4.891-4.891a1.541 1.541 0 0 0 0-2.18l-2.181-2.181zM50.452 17.167a1.544 1.544 0 0 0-2.181 0l-4.89 4.891a1.541 1.541 0 0 0 0 2.18l2.18 2.181a1.543 1.543 0 0 0 2.181 0l4.89-4.89a1.543 1.543 0 0 0 0-2.181l-2.18-2.181z"/><g><path d="M181.291 148.006a1.544 1.544 0 0 0-2.181 0l-11.961 11.962a1.543 1.543 0 0 0 0 2.181l2.18 2.18a1.543 1.543 0 0 0 2.181 0l11.961-11.961a1.543 1.543 0 0 0 0-2.181l-2.18-2.181z"/><path d="M181.291 148.006a1.544 1.544 0 0 0-2.181 0l-11.961 11.962a1.543 1.543 0 0 0 0 2.181l2.18 2.18a1.543 1.543 0 0 0 2.181 0l11.961-11.961a1.543 1.543 0 0 0 0-2.181l-2.18-2.181zM137.678 104.393a1.544 1.544 0 0 0-2.181 0l-11.961 11.962a1.543 1.543 0 0 0 0 2.181l2.18 2.18a1.543 1.543 0 0 0 2.181 0l11.961-11.961a1.543 1.543 0 0 0 0-2.181l-2.18-2.181zM94.065 60.78a1.544 1.544 0 0 0-2.181 0L79.923 72.742a1.543 1.543 0 0 0 0 2.181l2.18 2.18a1.543 1.543 0 0 0 2.181 0l11.961-11.961a1.543 1.543 0 0 0 0-2.181l-2.18-2.181zM50.452 17.167a1.544 1.544 0 0 0-2.181 0L36.309 29.129a1.543 1.543 0 0 0 0 2.18l2.181 2.181a1.543 1.543 0 0 0 2.181 0l11.961-11.961a1.543 1.543 0 0 0 0-2.181l-2.18-2.181z"/></g></g>
  </symbol>
  <symbol id="Economy" viewBox="0 0 200 200">
    <path d="M69.441 174.754C33.039 173.041 5 162.603 5 150v-15l.098-1.286c.328-2.154 1.476-4.237 3.342-6.213C6.205 125.132 5 122.613 5 120v-15l.098-1.286c.328-2.154 1.476-4.237 3.342-6.213C6.205 95.132 5 92.613 5 90V75l.098-1.286c.328-2.154 1.476-4.237 3.342-6.213C6.205 65.132 5 62.613 5 60V45l.098-1.286C7.112 30.512 39.902 20 80 20c41.394 0 75 11.202 75 25v13.946a75.081 75.081 0 0 0-25-4.256c-1.551 0-3.092.047-4.62.14C137.472 51.468 145 46.746 145 41.521c0-10.198-28.677-18.479-64-18.479s-64 8.281-64 18.479C17 51.72 45.677 60 81 60c8.991 0 17.552-.536 25.318-1.505-14.699 4.872-27.397 14.154-36.521 26.275-21.812-.991-40.653-5.112-52.31-10.96 3.312 7.727 23.172 13.982 49.01 15.712a74.874 74.874 0 0 0-10.044 24.219c-16.084-1.774-29.764-5.315-38.966-9.931 2.827 6.596 17.712 12.119 38.08 14.671A75.828 75.828 0 0 0 54.69 130c0 4.672.426 9.245 1.242 13.683-15.858-1.793-29.342-5.306-38.445-9.873 2.894 6.752 18.424 12.38 39.536 14.847a75.046 75.046 0 0 0 12.418 26.097z"/><path d="M130 65c35.874 0 65 29.126 65 65 0 35.874-29.126 65-65 65-35.874 0-65-29.126-65-65 0-35.874 29.126-65 65-65zm3.721 113.145v-13.594c7.148-.899 12.715-3.076 16.699-6.533 3.984-3.457 5.976-7.842 5.976-13.155 0-3.437-.722-6.357-2.167-8.759-1.446-2.403-3.692-4.532-6.739-6.387-3.047-1.856-7.636-3.76-13.769-5.713v-25.43c6.015.43 11.933 1.797 17.754 4.102L154.521 95a59.466 59.466 0 0 0-20.8-4.336V80.117h-7.559v10.664c-6.523.703-11.767 2.696-15.732 5.977s-5.948 7.48-5.948 12.597c0 5.313 1.612 9.649 4.834 13.008 3.223 3.36 8.838 6.309 16.846 8.848v25.781c-3.476 0-7.334-.459-11.572-1.377-4.238-.918-7.979-2.099-11.221-3.545v9.141c2.617 1.211 5.977 2.158 10.078 2.842 4.102.683 8.34 1.025 12.715 1.025v13.067h7.559zm12.715-32.52c0-2.813-.87-5.088-2.608-6.826-1.738-1.738-5.107-3.467-10.107-5.186v22.793c8.476-1.172 12.715-4.765 12.715-10.781zm-32.051-36.387c0 2.969.879 5.352 2.636 7.149 1.758 1.797 4.805 3.496 9.141 5.097V98.809c-3.867.625-6.797 1.845-8.789 3.662-1.992 1.816-2.988 4.072-2.988 6.767z"/>
  </symbol>
  <symbol id="Electrical" viewBox="0 0 200 200">
    <clipPath id="a"><path d="M0 0h200v200H0z"/></clipPath><g clip-path="url(#a)"><path d="M40 29.555h15.228v132.308H40z"/><path d="M0 90.196h53.333v11.026H0zM125.988 4.215L120.891 0 41.57 65.593l5.097 4.214 79.321-65.592zM127.695 200l5.091-4.21-81.083-67.05-5.092 4.21L127.695 200z"/><path d="M100 172.888l-36.84-6.093 29.472-24.371L100 172.888zM140 20h40l-20 53.657h20l-60 88.205 20-66.153h-20L140 20z"/></g>
  </symbol>
  <symbol id="IT" viewBox="0 0 200 200">
    <path d="M180 23.125a12.644 12.644 0 0 0-12.641-12.641H32.641A12.641 12.641 0 0 0 20 23.125v94.718a12.64 12.64 0 0 0 12.641 12.641h134.718A12.64 12.64 0 0 0 180 117.843V23.125zm-10-2.641H30v100h140v-100z"/><path d="M87.525 137.135A5.56 5.56 0 0 0 90 132.51v-12.026h20v12.026a5.56 5.56 0 0 0 2.475 4.625l12.249 8.166a5.558 5.558 0 0 1-3.083 10.183H78.359a5.559 5.559 0 0 1-3.083-10.183l12.249-8.166z"/><g><path d="M142 166.984c0-3.587-2.913-6.5-6.5-6.5h-71a6.504 6.504 0 0 0-6.5 6.5v13c0 3.588 2.913 6.5 6.5 6.5h71c3.587 0 6.5-2.912 6.5-6.5v-13z" fill="none" stroke-width="3.5"/><path d="M70 166.734c0-.689-.56-1.25-1.25-1.25h-2.5c-.69 0-1.25.561-1.25 1.25v2.5c0 .69.56 1.25 1.25 1.25h2.5c.69 0 1.25-.56 1.25-1.25v-2.5zM76.5 166.734c0-.689-.56-1.25-1.25-1.25h-2.5c-.69 0-1.25.561-1.25 1.25v2.5c0 .69.56 1.25 1.25 1.25h2.5c.69 0 1.25-.56 1.25-1.25v-2.5zM83 166.734c0-.689-.56-1.25-1.25-1.25h-2.5c-.69 0-1.25.561-1.25 1.25v2.5c0 .69.56 1.25 1.25 1.25h2.5c.69 0 1.25-.56 1.25-1.25v-2.5zM89.5 166.734c0-.689-.56-1.25-1.25-1.25h-2.5c-.69 0-1.25.561-1.25 1.25v2.5c0 .69.56 1.25 1.25 1.25h2.5c.69 0 1.25-.56 1.25-1.25v-2.5zM96 166.734c0-.689-.56-1.25-1.25-1.25h-2.5c-.69 0-1.25.561-1.25 1.25v2.5c0 .69.56 1.25 1.25 1.25h2.5c.69 0 1.25-.56 1.25-1.25v-2.5zM102.5 166.734c0-.689-.56-1.25-1.25-1.25h-2.5c-.69 0-1.25.561-1.25 1.25v2.5c0 .69.56 1.25 1.25 1.25h2.5c.69 0 1.25-.56 1.25-1.25v-2.5zM109 166.734c0-.689-.56-1.25-1.25-1.25h-2.5c-.69 0-1.25.561-1.25 1.25v2.5c0 .69.56 1.25 1.25 1.25h2.5c.69 0 1.25-.56 1.25-1.25v-2.5zM115.5 166.734c0-.689-.56-1.25-1.25-1.25h-2.5c-.69 0-1.25.561-1.25 1.25v2.5c0 .69.56 1.25 1.25 1.25h2.5c.69 0 1.25-.56 1.25-1.25v-2.5zM122 166.734c0-.689-.56-1.25-1.25-1.25h-2.5c-.69 0-1.25.561-1.25 1.25v2.5c0 .69.56 1.25 1.25 1.25h2.5c.69 0 1.25-.56 1.25-1.25v-2.5zM128.5 166.734c0-.689-.56-1.25-1.25-1.25h-2.5c-.69 0-1.25.561-1.25 1.25v2.5c0 .69.56 1.25 1.25 1.25h2.5c.69 0 1.25-.56 1.25-1.25v-2.5zM135 166.734c0-.689-.56-1.25-1.25-1.25h-2.5c-.69 0-1.25.561-1.25 1.25v2.5c0 .69.56 1.25 1.25 1.25h2.5c.69 0 1.25-.56 1.25-1.25v-2.5z"/><g><path d="M73 172.734c0-.689-.56-1.25-1.25-1.25h-5.5c-.69 0-1.25.561-1.25 1.25v2.5c0 .69.56 1.25 1.25 1.25h5.5c.69 0 1.25-.56 1.25-1.25v-2.5zM79.5 172.734c0-.689-.56-1.25-1.25-1.25h-2.5c-.69 0-1.25.561-1.25 1.25v2.5c0 .69.56 1.25 1.25 1.25h2.5c.69 0 1.25-.56 1.25-1.25v-2.5zM86 172.734c0-.689-.56-1.25-1.25-1.25h-2.5c-.69 0-1.25.561-1.25 1.25v2.5c0 .69.56 1.25 1.25 1.25h2.5c.69 0 1.25-.56 1.25-1.25v-2.5zM92.5 172.734c0-.689-.56-1.25-1.25-1.25h-2.5c-.69 0-1.25.561-1.25 1.25v2.5c0 .69.56 1.25 1.25 1.25h2.5c.69 0 1.25-.56 1.25-1.25v-2.5zM99 172.734c0-.689-.56-1.25-1.25-1.25h-2.5c-.69 0-1.25.561-1.25 1.25v2.5c0 .69.56 1.25 1.25 1.25h2.5c.69 0 1.25-.56 1.25-1.25v-2.5zM105.5 172.734c0-.689-.56-1.25-1.25-1.25h-2.5c-.69 0-1.25.561-1.25 1.25v2.5c0 .69.56 1.25 1.25 1.25h2.5c.69 0 1.25-.56 1.25-1.25v-2.5zM112 172.734c0-.689-.56-1.25-1.25-1.25h-2.5c-.69 0-1.25.561-1.25 1.25v2.5c0 .69.56 1.25 1.25 1.25h2.5c.69 0 1.25-.56 1.25-1.25v-2.5zM118.5 172.734c0-.689-.56-1.25-1.25-1.25h-2.5c-.69 0-1.25.561-1.25 1.25v2.5c0 .69.56 1.25 1.25 1.25h2.5c.69 0 1.25-.56 1.25-1.25v-2.5zM125 172.734c0-.689-.56-1.25-1.25-1.25h-2.5c-.69 0-1.25.561-1.25 1.25v2.5c0 .69.56 1.25 1.25 1.25h2.5c.69 0 1.25-.56 1.25-1.25v-2.5zM135 172.734c0-.689-.56-1.25-1.25-1.25h-6c-.69 0-1.25.561-1.25 1.25v2.5c0 .69.56 1.25 1.25 1.25h6c.69 0 1.25-.56 1.25-1.25v-2.5z"/></g><g><path d="M70 178.734c0-.689-.56-1.25-1.25-1.25h-2.5c-.69 0-1.25.561-1.25 1.25v2.5c0 .69.56 1.25 1.25 1.25h2.5c.69 0 1.25-.56 1.25-1.25v-2.5zM76.5 178.734c0-.689-.56-1.25-1.25-1.25h-2.5c-.69 0-1.25.561-1.25 1.25v2.5c0 .69.56 1.25 1.25 1.25h2.5c.69 0 1.25-.56 1.25-1.25v-2.5zM83 178.734c0-.689-.56-1.25-1.25-1.25h-2.5c-.69 0-1.25.561-1.25 1.25v2.5c0 .69.56 1.25 1.25 1.25h2.5c.69 0 1.25-.56 1.25-1.25v-2.5zM115 178.734c0-.689-.56-1.25-1.25-1.25h-28c-.69 0-1.25.561-1.25 1.25v2.5c0 .69.56 1.25 1.25 1.25h28c.69 0 1.25-.56 1.25-1.25v-2.5zM122 178.734c0-.689-.56-1.25-1.25-1.25h-2.5c-.69 0-1.25.561-1.25 1.25v2.5c0 .69.56 1.25 1.25 1.25h2.5c.69 0 1.25-.56 1.25-1.25v-2.5zM128.5 178.734c0-.689-.56-1.25-1.25-1.25h-2.5c-.69 0-1.25.561-1.25 1.25v2.5c0 .69.56 1.25 1.25 1.25h2.5c.69 0 1.25-.56 1.25-1.25v-2.5zM135 178.734c0-.689-.56-1.25-1.25-1.25h-2.5c-.69 0-1.25.561-1.25 1.25v2.5c0 .69.56 1.25 1.25 1.25h2.5c.69 0 1.25-.56 1.25-1.25v-2.5z"/></g></g><g fill-rule="nonzero"><path d="M61.621 29.047c.492.648.883 1.48 1.172 2.496.289 1.016.434 2.152.434 3.41 0 1.305-.145 2.44-.434 3.404-.289.965-.674 1.766-1.154 2.403-.481.636-1.037 1.111-1.67 1.424a4.401 4.401 0 0 1-1.969.468 3.83 3.83 0 0 1-2.01-.568c-.629-.379-1.177-.912-1.646-1.6-.469-.687-.84-1.511-1.114-2.472-.273-.961-.41-2.024-.41-3.188 0-1.164.141-2.23.422-3.199.281-.969.658-1.801 1.131-2.496.473-.695 1.022-1.236 1.647-1.623a3.7 3.7 0 0 1 1.98-.58c.398 0 .766.045 1.102.135.336.089.65.224.943.404.293.18.566.4.82.662s.506.568.756.92zm-1.746 1.699c-.195-.461-.453-.824-.773-1.09a1.651 1.651 0 0 0-1.079-.398c-.351 0-.685.127-1.002.381-.316.254-.595.611-.837 1.072-.243.461-.436 1.014-.58 1.658a9.82 9.82 0 0 0-.217 2.151c0 .14.004.296.011.468a49.741 49.741 0 0 0 .065 1.032c.012.164.025.3.041.41l4.371-5.684zm-3.703 8.016c.195.461.453.824.773 1.09.321.265.68.398 1.078.398.352 0 .686-.127 1.002-.381.317-.254.596-.609.838-1.066.242-.457.436-1.008.58-1.653A9.81 9.81 0 0 0 60.66 35a18.807 18.807 0 0 0-.082-1.506c-.015-.16-.027-.299-.035-.416l-4.371 5.684zM71.652 27.242v14.953h-2.636V30.289l-2.567.773-.644-1.64 4.054-2.18h1.793zM83.652 27.242v14.953h-2.636V30.289l-2.567.773-.644-1.64 4.054-2.18h1.793zM97.621 29.047c.492.648.883 1.48 1.172 2.496.289 1.016.434 2.152.434 3.41 0 1.305-.145 2.44-.434 3.404-.289.965-.674 1.766-1.154 2.403-.481.636-1.037 1.111-1.67 1.424a4.401 4.401 0 0 1-1.969.468 3.83 3.83 0 0 1-2.01-.568c-.629-.379-1.177-.912-1.646-1.6-.469-.687-.84-1.511-1.114-2.472-.273-.961-.41-2.024-.41-3.188 0-1.164.141-2.23.422-3.199.281-.969.658-1.801 1.131-2.496.473-.695 1.022-1.236 1.647-1.623a3.7 3.7 0 0 1 1.98-.58c.398 0 .766.045 1.102.135.336.089.65.224.943.404.293.18.566.4.82.662s.506.568.756.92zm-1.746 1.699c-.195-.461-.453-.824-.773-1.09a1.651 1.651 0 0 0-1.079-.398c-.351 0-.685.127-1.002.381-.316.254-.595.611-.837 1.072-.243.461-.436 1.014-.58 1.658a9.82 9.82 0 0 0-.217 2.151c0 .14.004.296.011.468a49.741 49.741 0 0 0 .065 1.032c.012.164.025.3.041.41l4.371-5.684zm-3.703 8.016c.195.461.453.824.773 1.09.321.265.68.398 1.078.398.352 0 .686-.127 1.002-.381.317-.254.596-.609.838-1.066.242-.457.436-1.008.58-1.653A9.81 9.81 0 0 0 96.66 35a18.807 18.807 0 0 0-.082-1.506c-.015-.16-.027-.299-.035-.416l-4.371 5.684zM107.652 27.242v14.953h-2.636V30.289l-2.567.773-.644-1.64 4.054-2.18h1.793zM121.621 29.047c.492.648.883 1.48 1.172 2.496.289 1.016.434 2.152.434 3.41 0 1.305-.145 2.44-.434 3.404-.289.965-.674 1.766-1.154 2.403-.481.636-1.037 1.111-1.67 1.424a4.401 4.401 0 0 1-1.969.468 3.83 3.83 0 0 1-2.01-.568c-.629-.379-1.177-.912-1.646-1.6-.469-.687-.84-1.511-1.114-2.472-.273-.961-.41-2.024-.41-3.188 0-1.164.141-2.23.422-3.199.281-.969.658-1.801 1.131-2.496.473-.695 1.022-1.236 1.647-1.623a3.7 3.7 0 0 1 1.98-.58c.398 0 .766.045 1.102.135.336.089.65.224.943.404.293.18.566.4.82.662s.506.568.756.92zm-1.746 1.699c-.195-.461-.453-.824-.773-1.09a1.651 1.651 0 0 0-1.079-.398c-.351 0-.685.127-1.002.381-.316.254-.595.611-.837 1.072-.243.461-.436 1.014-.58 1.658a9.82 9.82 0 0 0-.217 2.151c0 .14.004.296.011.468a49.741 49.741 0 0 0 .065 1.032c.012.164.025.3.041.41l4.371-5.684zm-3.703 8.016c.195.461.453.824.773 1.09.321.265.68.398 1.078.398.352 0 .686-.127 1.002-.381.317-.254.596-.609.838-1.066.242-.457.436-1.008.58-1.653a9.81 9.81 0 0 0 .217-2.15 18.807 18.807 0 0 0-.082-1.506c-.015-.16-.027-.299-.035-.416l-4.371 5.684zM133.621 29.047c.492.648.883 1.48 1.172 2.496.289 1.016.434 2.152.434 3.41 0 1.305-.145 2.44-.434 3.404-.289.965-.674 1.766-1.154 2.403-.481.636-1.037 1.111-1.67 1.424a4.401 4.401 0 0 1-1.969.468 3.83 3.83 0 0 1-2.01-.568c-.629-.379-1.177-.912-1.646-1.6-.469-.687-.84-1.511-1.114-2.472-.273-.961-.41-2.024-.41-3.188 0-1.164.141-2.23.422-3.199.281-.969.658-1.801 1.131-2.496.473-.695 1.022-1.236 1.647-1.623a3.7 3.7 0 0 1 1.98-.58c.398 0 .766.045 1.102.135.336.089.65.224.943.404.293.18.566.4.82.662s.506.568.756.92zm-1.746 1.699c-.195-.461-.453-.824-.773-1.09a1.651 1.651 0 0 0-1.079-.398c-.351 0-.685.127-1.002.381-.316.254-.595.611-.837 1.072-.243.461-.436 1.014-.58 1.658a9.82 9.82 0 0 0-.217 2.151c0 .14.004.296.011.468a49.741 49.741 0 0 0 .065 1.032c.012.164.025.3.041.41l4.371-5.684zm-3.703 8.016c.195.461.453.824.773 1.09.321.265.68.398 1.078.398.352 0 .686-.127 1.002-.381.317-.254.596-.609.838-1.066.242-.457.436-1.008.58-1.653a9.81 9.81 0 0 0 .217-2.15 18.807 18.807 0 0 0-.082-1.506c-.015-.16-.027-.299-.035-.416l-4.371 5.684zM143.652 27.242v14.953h-2.636V30.289l-2.567.773-.644-1.64 4.054-2.18h1.793zM61.621 53.047c.492.648.883 1.48 1.172 2.496.289 1.016.434 2.152.434 3.41 0 1.305-.145 2.44-.434 3.404-.289.965-.674 1.766-1.154 2.403-.481.636-1.037 1.111-1.67 1.424a4.401 4.401 0 0 1-1.969.468 3.83 3.83 0 0 1-2.01-.568c-.629-.379-1.177-.912-1.646-1.6-.469-.687-.84-1.511-1.114-2.472-.273-.961-.41-2.024-.41-3.188 0-1.164.141-2.23.422-3.199.281-.969.658-1.801 1.131-2.496.473-.695 1.022-1.236 1.647-1.623a3.7 3.7 0 0 1 1.98-.58c.398 0 .766.045 1.102.135.336.089.65.224.943.404.293.18.566.4.82.662s.506.568.756.92zm-1.746 1.699c-.195-.461-.453-.824-.773-1.09a1.651 1.651 0 0 0-1.079-.398c-.351 0-.685.127-1.002.381-.316.254-.595.611-.837 1.072-.243.461-.436 1.014-.58 1.658a9.82 9.82 0 0 0-.217 2.151c0 .14.004.296.011.468a49.741 49.741 0 0 0 .065 1.032c.012.164.025.3.041.41l4.371-5.684zm-3.703 8.016c.195.461.453.824.773 1.09.321.265.68.398 1.078.398.352 0 .686-.127 1.002-.381.317-.254.596-.609.838-1.066.242-.457.436-1.008.58-1.653A9.81 9.81 0 0 0 60.66 59a18.807 18.807 0 0 0-.082-1.506c-.015-.16-.027-.299-.035-.416l-4.371 5.684zM71.652 51.242v14.953h-2.636V54.289l-2.567.774-.644-1.641 4.054-2.18h1.793zM83.652 51.242v14.953h-2.636V54.289l-2.567.774-.644-1.641 4.054-2.18h1.793zM97.621 53.047c.492.648.883 1.48 1.172 2.496.289 1.016.434 2.152.434 3.41 0 1.305-.145 2.44-.434 3.404-.289.965-.674 1.766-1.154 2.403-.481.636-1.037 1.111-1.67 1.424a4.401 4.401 0 0 1-1.969.468 3.83 3.83 0 0 1-2.01-.568c-.629-.379-1.177-.912-1.646-1.6-.469-.687-.84-1.511-1.114-2.472-.273-.961-.41-2.024-.41-3.188 0-1.164.141-2.23.422-3.199.281-.969.658-1.801 1.131-2.496.473-.695 1.022-1.236 1.647-1.623a3.7 3.7 0 0 1 1.98-.58c.398 0 .766.045 1.102.135.336.089.65.224.943.404.293.18.566.4.82.662s.506.568.756.92zm-1.746 1.699c-.195-.461-.453-.824-.773-1.09a1.651 1.651 0 0 0-1.079-.398c-.351 0-.685.127-1.002.381-.316.254-.595.611-.837 1.072-.243.461-.436 1.014-.58 1.658a9.82 9.82 0 0 0-.217 2.151c0 .14.004.296.011.468a49.741 49.741 0 0 0 .065 1.032c.012.164.025.3.041.41l4.371-5.684zm-3.703 8.016c.195.461.453.824.773 1.09.321.265.68.398 1.078.398.352 0 .686-.127 1.002-.381.317-.254.596-.609.838-1.066.242-.457.436-1.008.58-1.653A9.81 9.81 0 0 0 96.66 59a18.807 18.807 0 0 0-.082-1.506c-.015-.16-.027-.299-.035-.416l-4.371 5.684zM107.652 51.242v14.953h-2.636V54.289l-2.567.774-.644-1.641 4.054-2.18h1.793zM119.652 51.242v14.953h-2.636V54.289l-2.567.774-.644-1.641 4.054-2.18h1.793zM131.652 51.242v14.953h-2.636V54.289l-2.567.774-.644-1.641 4.054-2.18h1.793zM145.621 53.047c.492.648.883 1.48 1.172 2.496.289 1.016.434 2.152.434 3.41 0 1.305-.145 2.44-.434 3.404-.289.965-.674 1.766-1.154 2.403-.481.636-1.037 1.111-1.67 1.424a4.401 4.401 0 0 1-1.969.468 3.83 3.83 0 0 1-2.01-.568c-.629-.379-1.177-.912-1.646-1.6-.469-.687-.84-1.511-1.114-2.472-.273-.961-.41-2.024-.41-3.188 0-1.164.141-2.23.422-3.199.281-.969.658-1.801 1.131-2.496.473-.695 1.022-1.236 1.647-1.623a3.7 3.7 0 0 1 1.98-.58c.398 0 .766.045 1.102.135.336.089.65.224.943.404.293.18.566.4.82.662s.506.568.756.92zm-1.746 1.699c-.195-.461-.453-.824-.773-1.09a1.651 1.651 0 0 0-1.079-.398c-.351 0-.685.127-1.002.381-.316.254-.595.611-.837 1.072-.243.461-.436 1.014-.58 1.658a9.82 9.82 0 0 0-.217 2.151c0 .14.004.296.011.468a49.741 49.741 0 0 0 .065 1.032c.012.164.025.3.041.41l4.371-5.684zm-3.703 8.016c.195.461.453.824.773 1.09.321.265.68.398 1.078.398.352 0 .686-.127 1.002-.381.317-.254.596-.609.838-1.066.242-.457.436-1.008.58-1.653a9.81 9.81 0 0 0 .217-2.15 18.807 18.807 0 0 0-.082-1.506c-.015-.16-.027-.299-.035-.416l-4.371 5.684zM61.621 77.047c.492.648.883 1.48 1.172 2.496.289 1.016.434 2.152.434 3.41 0 1.305-.145 2.44-.434 3.404-.289.965-.674 1.766-1.154 2.403-.481.636-1.037 1.111-1.67 1.424a4.401 4.401 0 0 1-1.969.468 3.83 3.83 0 0 1-2.01-.568c-.629-.379-1.177-.912-1.646-1.6-.469-.687-.84-1.511-1.114-2.472-.273-.961-.41-2.024-.41-3.188 0-1.164.141-2.23.422-3.199.281-.969.658-1.801 1.131-2.496.473-.695 1.022-1.236 1.647-1.623a3.7 3.7 0 0 1 1.98-.58c.398 0 .766.045 1.102.135.336.089.65.224.943.404.293.18.566.4.82.662s.506.568.756.92zm-1.746 1.699c-.195-.461-.453-.824-.773-1.09a1.651 1.651 0 0 0-1.079-.398c-.351 0-.685.127-1.002.381-.316.254-.595.611-.837 1.072-.243.461-.436 1.014-.58 1.658a9.82 9.82 0 0 0-.217 2.151c0 .14.004.296.011.468a49.741 49.741 0 0 0 .065 1.032c.012.164.025.3.041.41l4.371-5.684zm-3.703 8.016c.195.461.453.824.773 1.09.321.265.68.398 1.078.398.352 0 .686-.127 1.002-.381.317-.254.596-.609.838-1.066.242-.457.436-1.008.58-1.653A9.81 9.81 0 0 0 60.66 83a18.807 18.807 0 0 0-.082-1.506c-.015-.16-.027-.299-.035-.416l-4.371 5.684zM71.652 75.242v14.953h-2.636V78.289l-2.567.774-.644-1.641 4.054-2.18h1.793zM83.652 75.242v14.953h-2.636V78.289l-2.567.774-.644-1.641 4.054-2.18h1.793zM97.621 77.047c.492.648.883 1.48 1.172 2.496.289 1.016.434 2.152.434 3.41 0 1.305-.145 2.44-.434 3.404-.289.965-.674 1.766-1.154 2.403-.481.636-1.037 1.111-1.67 1.424a4.401 4.401 0 0 1-1.969.468 3.83 3.83 0 0 1-2.01-.568c-.629-.379-1.177-.912-1.646-1.6-.469-.687-.84-1.511-1.114-2.472-.273-.961-.41-2.024-.41-3.188 0-1.164.141-2.23.422-3.199.281-.969.658-1.801 1.131-2.496.473-.695 1.022-1.236 1.647-1.623a3.7 3.7 0 0 1 1.98-.58c.398 0 .766.045 1.102.135.336.089.65.224.943.404.293.18.566.4.82.662s.506.568.756.92zm-1.746 1.699c-.195-.461-.453-.824-.773-1.09a1.651 1.651 0 0 0-1.079-.398c-.351 0-.685.127-1.002.381-.316.254-.595.611-.837 1.072-.243.461-.436 1.014-.58 1.658a9.82 9.82 0 0 0-.217 2.151c0 .14.004.296.011.468a49.741 49.741 0 0 0 .065 1.032c.012.164.025.3.041.41l4.371-5.684zm-3.703 8.016c.195.461.453.824.773 1.09.321.265.68.398 1.078.398.352 0 .686-.127 1.002-.381.317-.254.596-.609.838-1.066.242-.457.436-1.008.58-1.653A9.81 9.81 0 0 0 96.66 83a18.807 18.807 0 0 0-.082-1.506c-.015-.16-.027-.299-.035-.416l-4.371 5.684zM109.621 77.047c.492.648.883 1.48 1.172 2.496.289 1.016.434 2.152.434 3.41 0 1.305-.145 2.44-.434 3.404-.289.965-.674 1.766-1.154 2.403-.481.636-1.037 1.111-1.67 1.424a4.401 4.401 0 0 1-1.969.468 3.83 3.83 0 0 1-2.01-.568c-.629-.379-1.177-.912-1.646-1.6-.469-.687-.84-1.511-1.114-2.472-.273-.961-.41-2.024-.41-3.188 0-1.164.141-2.23.422-3.199.281-.969.658-1.801 1.131-2.496.473-.695 1.022-1.236 1.647-1.623a3.7 3.7 0 0 1 1.98-.58c.398 0 .766.045 1.102.135.336.089.65.224.943.404.293.18.566.4.82.662s.506.568.756.92zm-1.746 1.699c-.195-.461-.453-.824-.773-1.09a1.651 1.651 0 0 0-1.079-.398c-.351 0-.685.127-1.002.381-.316.254-.595.611-.837 1.072-.243.461-.436 1.014-.58 1.658a9.82 9.82 0 0 0-.217 2.151c0 .14.004.296.011.468a49.741 49.741 0 0 0 .065 1.032c.012.164.025.3.041.41l4.371-5.684zm-3.703 8.016c.195.461.453.824.773 1.09.321.265.68.398 1.078.398.352 0 .686-.127 1.002-.381.317-.254.596-.609.838-1.066.242-.457.436-1.008.58-1.653a9.81 9.81 0 0 0 .217-2.15 18.807 18.807 0 0 0-.082-1.506c-.015-.16-.027-.299-.035-.416l-4.371 5.684zM119.652 75.242v14.953h-2.636V78.289l-2.567.774-.644-1.641 4.054-2.18h1.793zM131.652 75.242v14.953h-2.636V78.289l-2.567.774-.644-1.641 4.054-2.18h1.793zM145.621 77.047c.492.648.883 1.48 1.172 2.496.289 1.016.434 2.152.434 3.41 0 1.305-.145 2.44-.434 3.404-.289.965-.674 1.766-1.154 2.403-.481.636-1.037 1.111-1.67 1.424a4.401 4.401 0 0 1-1.969.468 3.83 3.83 0 0 1-2.01-.568c-.629-.379-1.177-.912-1.646-1.6-.469-.687-.84-1.511-1.114-2.472-.273-.961-.41-2.024-.41-3.188 0-1.164.141-2.23.422-3.199.281-.969.658-1.801 1.131-2.496.473-.695 1.022-1.236 1.647-1.623a3.7 3.7 0 0 1 1.98-.58c.398 0 .766.045 1.102.135.336.089.65.224.943.404.293.18.566.4.82.662s.506.568.756.92zm-1.746 1.699c-.195-.461-.453-.824-.773-1.09a1.651 1.651 0 0 0-1.079-.398c-.351 0-.685.127-1.002.381-.316.254-.595.611-.837 1.072-.243.461-.436 1.014-.58 1.658a9.82 9.82 0 0 0-.217 2.151c0 .14.004.296.011.468a49.741 49.741 0 0 0 .065 1.032c.012.164.025.3.041.41l4.371-5.684zm-3.703 8.016c.195.461.453.824.773 1.09.321.265.68.398 1.078.398.352 0 .686-.127 1.002-.381.317-.254.596-.609.838-1.066.242-.457.436-1.008.58-1.653a9.81 9.81 0 0 0 .217-2.15 18.807 18.807 0 0 0-.082-1.506c-.015-.16-.027-.299-.035-.416l-4.371 5.684zM61.621 101.047c.492.648.883 1.48 1.172 2.496.289 1.016.434 2.152.434 3.41 0 1.305-.145 2.44-.434 3.404-.289.965-.674 1.766-1.154 2.403-.481.636-1.037 1.111-1.67 1.424a4.401 4.401 0 0 1-1.969.468 3.83 3.83 0 0 1-2.01-.568c-.629-.379-1.177-.912-1.646-1.6-.469-.687-.84-1.511-1.114-2.472-.273-.961-.41-2.024-.41-3.188 0-1.164.141-2.23.422-3.199.281-.969.658-1.801 1.131-2.496.473-.695 1.022-1.236 1.647-1.623a3.7 3.7 0 0 1 1.98-.58c.398 0 .766.045 1.102.135.336.089.65.224.943.404.293.18.566.4.82.662s.506.568.756.92zm-1.746 1.699c-.195-.461-.453-.824-.773-1.09a1.651 1.651 0 0 0-1.079-.398c-.351 0-.685.127-1.002.381-.316.254-.595.611-.837 1.072-.243.461-.436 1.014-.58 1.658a9.82 9.82 0 0 0-.217 2.151c0 .14.004.296.011.468a49.741 49.741 0 0 0 .065 1.032c.012.164.025.3.041.41l4.371-5.684zm-3.703 8.016c.195.461.453.824.773 1.09.321.265.68.398 1.078.398.352 0 .686-.127 1.002-.381.317-.254.596-.609.838-1.066.242-.457.436-1.008.58-1.653a9.81 9.81 0 0 0 .217-2.15 18.807 18.807 0 0 0-.082-1.506c-.015-.16-.027-.299-.035-.416l-4.371 5.684zM71.652 99.242v14.953h-2.636v-11.906l-2.567.774-.644-1.641 4.054-2.18h1.793zM83.652 99.242v14.953h-2.636v-11.906l-2.567.774-.644-1.641 4.054-2.18h1.793zM97.621 101.047c.492.648.883 1.48 1.172 2.496.289 1.016.434 2.152.434 3.41 0 1.305-.145 2.44-.434 3.404-.289.965-.674 1.766-1.154 2.403-.481.636-1.037 1.111-1.67 1.424a4.401 4.401 0 0 1-1.969.468 3.83 3.83 0 0 1-2.01-.568c-.629-.379-1.177-.912-1.646-1.6-.469-.687-.84-1.511-1.114-2.472-.273-.961-.41-2.024-.41-3.188 0-1.164.141-2.23.422-3.199.281-.969.658-1.801 1.131-2.496.473-.695 1.022-1.236 1.647-1.623a3.7 3.7 0 0 1 1.98-.58c.398 0 .766.045 1.102.135.336.089.65.224.943.404.293.18.566.4.82.662s.506.568.756.92zm-1.746 1.699c-.195-.461-.453-.824-.773-1.09a1.651 1.651 0 0 0-1.079-.398c-.351 0-.685.127-1.002.381-.316.254-.595.611-.837 1.072-.243.461-.436 1.014-.58 1.658a9.82 9.82 0 0 0-.217 2.151c0 .14.004.296.011.468a49.741 49.741 0 0 0 .065 1.032c.012.164.025.3.041.41l4.371-5.684zm-3.703 8.016c.195.461.453.824.773 1.09.321.265.68.398 1.078.398.352 0 .686-.127 1.002-.381.317-.254.596-.609.838-1.066.242-.457.436-1.008.58-1.653a9.81 9.81 0 0 0 .217-2.15 18.807 18.807 0 0 0-.082-1.506c-.015-.16-.027-.299-.035-.416l-4.371 5.684zM107.652 99.242v14.953h-2.636v-11.906l-2.567.774-.644-1.641 4.054-2.18h1.793zM119.652 99.242v14.953h-2.636v-11.906l-2.567.774-.644-1.641 4.054-2.18h1.793zM131.652 99.242v14.953h-2.636v-11.906l-2.567.774-.644-1.641 4.054-2.18h1.793zM143.652 99.242v14.953h-2.636v-11.906l-2.567.774-.644-1.641 4.054-2.18h1.793z"/></g>
  </symbol>
  <symbol id="Mechanical" viewBox="0 0 200 200">
    <path d="M107.452.278a99.928 99.928 0 0 0-14.904 0l-3.06 18.702a81.707 81.707 0 0 0-15.17 3.462L63.446 6.92a100.047 100.047 0 0 0-13.428 6.467l5.357 18.178a81.65 81.65 0 0 0-12.165 9.701l-16.53-9.268a100.068 100.068 0 0 0-9.292 11.652l12.714 14.054a81.68 81.68 0 0 0-6.752 14.018L4.436 70.545a100.109 100.109 0 0 0-3.316 14.53l17.552 7.145a81.705 81.705 0 0 0 0 15.56L1.12 114.925a100.109 100.109 0 0 0 3.316 14.53l18.914-1.177a81.68 81.68 0 0 0 6.752 14.018L17.388 156.35a100.068 100.068 0 0 0 9.292 11.652l16.53-9.268a81.65 81.65 0 0 0 12.165 9.701l-5.357 18.178a100.047 100.047 0 0 0 13.428 6.467l10.872-15.522a81.707 81.707 0 0 0 15.17 3.462l3.06 18.702c4.961.371 9.943.371 14.904 0l3.06-18.702a81.707 81.707 0 0 0 15.17-3.462l10.872 15.522c4.63-1.819 9.119-3.98 13.428-6.467l-5.357-18.178a81.65 81.65 0 0 0 12.165-9.701l16.53 9.268a100.068 100.068 0 0 0 9.292-11.652l-12.714-14.054a81.68 81.68 0 0 0 6.752-14.018l18.914 1.177a100.109 100.109 0 0 0 3.316-14.53l-17.552-7.145a81.705 81.705 0 0 0 0-15.56l17.552-7.145a100.109 100.109 0 0 0-3.316-14.53l-18.914 1.177a81.68 81.68 0 0 0-6.752-14.018l12.714-14.054a100.068 100.068 0 0 0-9.292-11.652l-16.53 9.268a81.65 81.65 0 0 0-12.165-9.701l5.357-18.178a100.047 100.047 0 0 0-13.428-6.467l-10.872 15.522a81.707 81.707 0 0 0-15.17-3.462L107.452.278zM100 47.942c28.732 0 52.058 23.326 52.058 52.058S128.732 152.058 100 152.058 47.942 128.732 47.942 100 71.268 47.942 100 47.942z"/>
  </symbol>
  <symbol id="Media" viewBox="0 0 200 200">
    <path d="M144.748 66.968a3.501 3.501 0 0 1 0 6.064l-58.067 33.525a3.5 3.5 0 0 1-5.252-3.032v-67.05a3.5 3.5 0 0 1 5.252-3.032l58.067 33.525zM69.571 36.501A3.497 3.497 0 0 0 66.07 33h-3.569c-.928 0-1.819.369-2.475 1.026A3.498 3.498 0 0 0 59 36.501v66.998c0 .928.369 1.819 1.026 2.475A3.498 3.498 0 0 0 62.501 107h3.569a3.5 3.5 0 0 0 3.501-3.501V36.501z"/><path d="M180 23.125a12.644 12.644 0 0 0-12.641-12.641H32.641A12.641 12.641 0 0 0 20 23.125v94.718a12.64 12.64 0 0 0 12.641 12.641h134.718A12.64 12.64 0 0 0 180 117.843V23.125zm-10-2.641H30v100h140v-100z"/><path d="M87.525 137.135A5.56 5.56 0 0 0 90 132.51v-12.026h20v12.026a5.56 5.56 0 0 0 2.475 4.625l12.249 8.166a5.558 5.558 0 0 1-3.083 10.183H78.359a5.559 5.559 0 0 1-3.083-10.183l12.249-8.166z"/><g><path d="M142 166.984c0-3.587-2.913-6.5-6.5-6.5h-71a6.504 6.504 0 0 0-6.5 6.5v13c0 3.588 2.913 6.5 6.5 6.5h71c3.587 0 6.5-2.912 6.5-6.5v-13z" fill="none" stroke-width="3.5"/><path d="M70 166.734c0-.689-.56-1.25-1.25-1.25h-2.5c-.69 0-1.25.561-1.25 1.25v2.5c0 .69.56 1.25 1.25 1.25h2.5c.69 0 1.25-.56 1.25-1.25v-2.5zM76.5 166.734c0-.689-.56-1.25-1.25-1.25h-2.5c-.69 0-1.25.561-1.25 1.25v2.5c0 .69.56 1.25 1.25 1.25h2.5c.69 0 1.25-.56 1.25-1.25v-2.5zM83 166.734c0-.689-.56-1.25-1.25-1.25h-2.5c-.69 0-1.25.561-1.25 1.25v2.5c0 .69.56 1.25 1.25 1.25h2.5c.69 0 1.25-.56 1.25-1.25v-2.5zM89.5 166.734c0-.689-.56-1.25-1.25-1.25h-2.5c-.69 0-1.25.561-1.25 1.25v2.5c0 .69.56 1.25 1.25 1.25h2.5c.69 0 1.25-.56 1.25-1.25v-2.5zM96 166.734c0-.689-.56-1.25-1.25-1.25h-2.5c-.69 0-1.25.561-1.25 1.25v2.5c0 .69.56 1.25 1.25 1.25h2.5c.69 0 1.25-.56 1.25-1.25v-2.5zM102.5 166.734c0-.689-.56-1.25-1.25-1.25h-2.5c-.69 0-1.25.561-1.25 1.25v2.5c0 .69.56 1.25 1.25 1.25h2.5c.69 0 1.25-.56 1.25-1.25v-2.5zM109 166.734c0-.689-.56-1.25-1.25-1.25h-2.5c-.69 0-1.25.561-1.25 1.25v2.5c0 .69.56 1.25 1.25 1.25h2.5c.69 0 1.25-.56 1.25-1.25v-2.5zM115.5 166.734c0-.689-.56-1.25-1.25-1.25h-2.5c-.69 0-1.25.561-1.25 1.25v2.5c0 .69.56 1.25 1.25 1.25h2.5c.69 0 1.25-.56 1.25-1.25v-2.5zM122 166.734c0-.689-.56-1.25-1.25-1.25h-2.5c-.69 0-1.25.561-1.25 1.25v2.5c0 .69.56 1.25 1.25 1.25h2.5c.69 0 1.25-.56 1.25-1.25v-2.5zM128.5 166.734c0-.689-.56-1.25-1.25-1.25h-2.5c-.69 0-1.25.561-1.25 1.25v2.5c0 .69.56 1.25 1.25 1.25h2.5c.69 0 1.25-.56 1.25-1.25v-2.5zM135 166.734c0-.689-.56-1.25-1.25-1.25h-2.5c-.69 0-1.25.561-1.25 1.25v2.5c0 .69.56 1.25 1.25 1.25h2.5c.69 0 1.25-.56 1.25-1.25v-2.5z"/><g><path d="M73 172.734c0-.689-.56-1.25-1.25-1.25h-5.5c-.69 0-1.25.561-1.25 1.25v2.5c0 .69.56 1.25 1.25 1.25h5.5c.69 0 1.25-.56 1.25-1.25v-2.5zM79.5 172.734c0-.689-.56-1.25-1.25-1.25h-2.5c-.69 0-1.25.561-1.25 1.25v2.5c0 .69.56 1.25 1.25 1.25h2.5c.69 0 1.25-.56 1.25-1.25v-2.5zM86 172.734c0-.689-.56-1.25-1.25-1.25h-2.5c-.69 0-1.25.561-1.25 1.25v2.5c0 .69.56 1.25 1.25 1.25h2.5c.69 0 1.25-.56 1.25-1.25v-2.5zM92.5 172.734c0-.689-.56-1.25-1.25-1.25h-2.5c-.69 0-1.25.561-1.25 1.25v2.5c0 .69.56 1.25 1.25 1.25h2.5c.69 0 1.25-.56 1.25-1.25v-2.5zM99 172.734c0-.689-.56-1.25-1.25-1.25h-2.5c-.69 0-1.25.561-1.25 1.25v2.5c0 .69.56 1.25 1.25 1.25h2.5c.69 0 1.25-.56 1.25-1.25v-2.5zM105.5 172.734c0-.689-.56-1.25-1.25-1.25h-2.5c-.69 0-1.25.561-1.25 1.25v2.5c0 .69.56 1.25 1.25 1.25h2.5c.69 0 1.25-.56 1.25-1.25v-2.5zM112 172.734c0-.689-.56-1.25-1.25-1.25h-2.5c-.69 0-1.25.561-1.25 1.25v2.5c0 .69.56 1.25 1.25 1.25h2.5c.69 0 1.25-.56 1.25-1.25v-2.5zM118.5 172.734c0-.689-.56-1.25-1.25-1.25h-2.5c-.69 0-1.25.561-1.25 1.25v2.5c0 .69.56 1.25 1.25 1.25h2.5c.69 0 1.25-.56 1.25-1.25v-2.5zM125 172.734c0-.689-.56-1.25-1.25-1.25h-2.5c-.69 0-1.25.561-1.25 1.25v2.5c0 .69.56 1.25 1.25 1.25h2.5c.69 0 1.25-.56 1.25-1.25v-2.5zM135 172.734c0-.689-.56-1.25-1.25-1.25h-6c-.69 0-1.25.561-1.25 1.25v2.5c0 .69.56 1.25 1.25 1.25h6c.69 0 1.25-.56 1.25-1.25v-2.5z"/></g><g><path d="M70 178.734c0-.689-.56-1.25-1.25-1.25h-2.5c-.69 0-1.25.561-1.25 1.25v2.5c0 .69.56 1.25 1.25 1.25h2.5c.69 0 1.25-.56 1.25-1.25v-2.5zM76.5 178.734c0-.689-.56-1.25-1.25-1.25h-2.5c-.69 0-1.25.561-1.25 1.25v2.5c0 .69.56 1.25 1.25 1.25h2.5c.69 0 1.25-.56 1.25-1.25v-2.5zM83 178.734c0-.689-.56-1.25-1.25-1.25h-2.5c-.69 0-1.25.561-1.25 1.25v2.5c0 .69.56 1.25 1.25 1.25h2.5c.69 0 1.25-.56 1.25-1.25v-2.5zM115 178.734c0-.689-.56-1.25-1.25-1.25h-28c-.69 0-1.25.561-1.25 1.25v2.5c0 .69.56 1.25 1.25 1.25h28c.69 0 1.25-.56 1.25-1.25v-2.5zM122 178.734c0-.689-.56-1.25-1.25-1.25h-2.5c-.69 0-1.25.561-1.25 1.25v2.5c0 .69.56 1.25 1.25 1.25h2.5c.69 0 1.25-.56 1.25-1.25v-2.5zM128.5 178.734c0-.689-.56-1.25-1.25-1.25h-2.5c-.69 0-1.25.561-1.25 1.25v2.5c0 .69.56 1.25 1.25 1.25h2.5c.69 0 1.25-.56 1.25-1.25v-2.5zM135 178.734c0-.689-.56-1.25-1.25-1.25h-2.5c-.69 0-1.25.561-1.25 1.25v2.5c0 .69.56 1.25 1.25 1.25h2.5c.69 0 1.25-.56 1.25-1.25v-2.5z"/></g></g>
  </symbol>
  <symbol id="Physics" viewBox="0 0 200 200">
    <path d="M104.813 133.825c1.871-2.66 1.168-6.296-1.569-8.115-2.736-1.818-6.477-1.135-8.347 1.525-1.871 2.66-1.168 6.296 1.568 8.115 2.737 1.818 6.477 1.135 8.348-1.525z"/><path d="M101.496 137.005c28.088-6.104 50.221-13.974 49.395-17.566-.826-3.591-24.3-1.551-52.387 4.553-28.088 6.103-50.221 13.974-49.395 17.565.826 3.591 24.3 1.552 52.387-4.552zm-.137-.596c25.513-5.544 45.617-12.694 44.866-15.956-.75-3.262-22.072-1.409-47.584 4.135-25.513 5.544-45.617 12.693-44.866 15.955.75 3.262 22.072 1.41 47.584-4.134z"/><path d="M65.679 142.368c-.24-1.091-1.346-1.787-2.469-1.554-1.123.233-1.839 1.308-1.599 2.4.24 1.091 1.346 1.788 2.469 1.554 1.122-.233 1.839-1.308 1.599-2.4zM134.582 125.884c-1.128-.223-2.23.486-2.458 1.582-.229 1.097.5 2.167 1.628 2.39 1.127.222 2.229-.487 2.458-1.583.229-1.096-.501-2.167-1.628-2.389zM129.228 118.86c.099.696.761 1.184 1.478 1.088.716-.096 1.218-.74 1.119-1.436-.099-.697-.761-1.184-1.478-1.088-.716.096-1.218.739-1.119 1.436zM87.519 142.19c1.011-1.437.631-3.401-.847-4.383-1.479-.982-3.499-.613-4.51.824-1.01 1.437-.63 3.401.848 4.383 1.478.982 3.499.613 4.509-.824zM114.118 136.385c1.099-1.562.686-3.699-.922-4.767-1.607-1.068-3.805-.667-4.904.896-1.099 1.563-.686 3.699.922 4.767 1.608 1.068 3.805.667 4.904-.896zM64.566 132.633a1.05 1.05 0 0 0 .509 1.418 1.107 1.107 0 0 0 1.458-.495 1.049 1.049 0 0 0-.508-1.417 1.108 1.108 0 0 0-1.459.494zM85.506 126.617a.968.968 0 0 0 .298 1.361 1.03 1.03 0 0 0 1.399-.289.968.968 0 0 0-.297-1.361 1.031 1.031 0 0 0-1.4.289zM107.029 121.408a1.12 1.12 0 0 0 .344 1.576 1.193 1.193 0 0 0 1.622-.335 1.12 1.12 0 0 0-.345-1.576 1.192 1.192 0 0 0-1.621.335z"/><g><path d="M103.406 125.191c-17.71-11.151-33.734-17.734-35.762-14.691-2.028 3.043 10.703 14.567 28.413 25.719 17.71 11.152 33.734 17.735 35.762 14.692 2.028-3.044-10.703-14.568-28.413-25.72zm-.337.506c-16.086-10.13-30.641-16.109-32.484-13.345-1.842 2.764 9.723 13.232 25.809 23.362 16.086 10.129 30.641 16.109 32.484 13.344 1.842-2.764-9.723-13.232-25.809-23.361z"/><path d="M129.03 145.225a2.788 2.788 0 0 0-.6-3.97c-1.293-.934-3.123-.673-4.084.584a2.787 2.787 0 0 0 .6 3.969c1.293.935 3.123.673 4.084-.583zM89.907 131.509a1.353 1.353 0 0 0-.37-1.913 1.443 1.443 0 0 0-1.969.359 1.354 1.354 0 0 0 .37 1.914 1.443 1.443 0 0 0 1.969-.36z"/></g><path d="M109.246 128.814c-5.51-28.5-14.191-50.869-19.374-49.922-5.183.946-4.918 24.853.592 53.353s14.191 50.87 19.374 49.923c5.183-.947 4.917-24.854-.592-53.354zm-.861.158c-5.005-25.888-12.89-46.206-17.598-45.346-4.708.86-4.467 22.575.538 48.462 5.005 25.887 12.89 46.206 17.598 45.346 4.707-.86 4.466-22.575-.538-48.462z"/><path d="M92.608 118.919a2.103 2.103 0 0 0-.575-2.972c-1.002-.666-2.372-.416-3.057.558a2.103 2.103 0 0 0 .574 2.973c1.002.666 2.373.415 3.058-.559zM98.333 157.762c.579-.824.387-1.934-.43-2.477-.816-.543-1.95-.314-2.53.511-.58.824-.387 1.934.429 2.477.817.543 1.951.314 2.531-.511zM88.723 108.939c.58-.824.388-1.934-.429-2.477-.816-.543-1.95-.314-2.53.51-.58.825-.388 1.935.429 2.478.817.542 1.951.314 2.53-.511zM104.358 100.418c1.46-2.076.911-4.913-1.224-6.332-2.136-1.419-5.054-.886-6.514 1.19-1.46 2.075-.911 4.913 1.224 6.332 2.135 1.419 5.054.886 6.514-1.19zM117.476 161.898c1.46-2.076.911-4.913-1.224-6.332-2.135-1.419-5.054-.886-6.514 1.19s-.911 4.913 1.224 6.332c2.136 1.419 5.054.886 6.514-1.19z"/><path d="M43.573 93.911c21.29-30.267 63.858-38.041 95-17.351 31.143 20.691 39.143 62.062 17.854 92.329-21.29 30.267-63.858 38.042-95 17.351-31.143-20.691-39.143-62.062-17.854-92.329zm5.602 3.722c19.176-27.262 57.518-34.265 85.569-15.628 28.051 18.636 35.257 55.9 16.081 83.162-19.176 27.263-57.518 34.265-85.569 15.629-28.051-18.637-35.257-55.901-16.081-83.163z"/><path d="M134.743 75.813L59.89 182.232l5.937 3.945L140.68 79.758l-5.937-3.945z"/><g><path d="M47.373 37.778c.464 0 1.64 0 1.64-1.147 0-.788-.677-.788-1.319-.788h-7.877c-5.346 0-9.196 5.985-9.196 10.215 0 3.046 1.961 5.591 5.169 5.591 4.205 0 8.803-4.552 8.803-9.928 0-1.398-.32-2.76-1.176-3.943h3.956zM35.825 50.932c-1.818 0-3.136-1.398-3.136-3.871 0-2.15 1.283-9.283 6.522-9.283 1.533 0 3.244.753 3.244 3.513 0 1.254-.571 4.265-1.818 6.344-1.283 2.114-3.208 3.297-4.812 3.297zM61.008 47.133a1.368 1.368 0 0 0-1.093 1.29c0 .526.404.884.927.884.522 0 1.33-.406 1.33-1.434 0-1.362-1.497-1.744-2.376-1.744-1.117 0-2.02.789-2.566 1.72-.523-1.266-1.759-1.72-2.733-1.72-2.59 0-4.039 2.987-4.039 3.656 0 .215.166.31.356.31.285 0 .333-.119.404-.406.547-1.744 1.972-2.891 3.208-2.891.927 0 1.378.669 1.378 1.529 0 .478-.285 1.577-.475 2.342-.167.693-.689 2.819-.808 3.273-.333 1.291-1.188 2.294-2.257 2.294-.095 0-.713 0-1.212-.334 1.093-.263 1.093-1.267 1.093-1.291 0-.549-.428-.884-.951-.884-.641 0-1.33.55-1.33 1.458 0 1.099 1.164 1.72 2.376 1.72 1.259 0 2.138-.955 2.566-1.72.523 1.171 1.616 1.72 2.756 1.72 2.59 0 4.016-2.986 4.016-3.655 0-.239-.19-.311-.356-.311-.285 0-.333.167-.404.406-.475 1.601-1.83 2.891-3.208 2.891-.784 0-1.354-.525-1.354-1.529 0-.478.142-1.027.475-2.365.166-.717.689-2.82.808-3.274.332-1.242 1.164-2.27 2.233-2.27.119 0 .737 0 1.236.335zM82.907 37.778c.463 0 1.639 0 1.639-1.147 0-.788-.677-.788-1.319-.788H75.35c-5.346 0-9.195 5.985-9.195 10.215 0 3.046 1.96 5.591 5.168 5.591 4.206 0 8.803-4.552 8.803-9.928 0-1.398-.32-2.76-1.176-3.943h3.957zM71.358 50.932c-1.817 0-3.136-1.398-3.136-3.871 0-2.15 1.283-9.283 6.522-9.283 1.533 0 3.244.753 3.244 3.513 0 1.254-.57 4.265-1.818 6.344-1.283 2.114-3.208 3.297-4.812 3.297zM85.872 59.558c-.19.764-.238.955-1.188.955-.333 0-.618 0-.618.454 0 .215.214.335.333.335.237 0 .332-.072 2.091-.072 1.711 0 2.21.072 2.376.072.095 0 .451 0 .451-.454 0-.335-.332-.335-.617-.335-1.141 0-1.141-.143-1.141-.358 0-.167.428-1.864 1.141-4.659.309.549 1.045 1.409 2.328 1.409 2.923 0 5.965-3.393 5.965-6.857 0-2.366-1.521-3.919-3.422-3.919-1.426 0-2.566.98-3.256 1.697-.499-1.697-2.091-1.697-2.328-1.697-.856 0-1.45.55-1.83 1.29-.546 1.076-.808 2.294-.808 2.366 0 .215.167.31.357.31.309 0 .332-.095.499-.716.309-1.219.736-2.581 1.711-2.581.594 0 .76.55.76 1.123 0 .239-.095.812-.143 1.004l-2.661 10.633zm4.372-10.251c.119-.406.119-.454.475-.884.903-1.075 1.925-1.625 2.781-1.625 1.188 0 1.639 1.171 1.639 2.246 0 .884-.523 3.441-1.236 4.851-.617 1.29-1.758 2.341-2.875 2.341-1.615 0-1.996-1.863-1.996-2.031 0-.048.048-.31.072-.382l1.14-4.516zM132.754 39.678c.499-.215.713-.466.713-.789 0-.358-.143-.573-.713-.824l-19.639-9.319c-.499-.251-.642-.251-.713-.251a.695.695 0 0 0-.713.717c0 .43.285.609.677.789l18.713 8.852-18.641 8.853c-.713.323-.749.61-.749.825 0 .394.321.717.713.717.107 0 .178 0 .642-.251l19.71-9.319zm-.535 16.523c.606 0 1.248 0 1.248-.717s-.749-.717-1.283-.717h-19.212c-.534 0-1.283 0-1.283.717s.642.717 1.248.717h19.282zM159.007 7.331h6.914c.606 0 .998 0 .998-.43 0-.466-.427-.466-1.105-.466h-6.594c.25-.896.25-.968.464-1.864.178-.645.499-1.9.499-1.971 0-.323-.214-.431-.499-.431-.677 0-3.493.287-4.349.359-.285.036-.677.072-.677.753 0 .394.357.394.856.394 1.71 0 1.782.251 1.782.609 0 .251-.321 1.434-.499 2.151h-1.996c-.713 0-1.105 0-1.105.466 0 .43.321.43.998.43h1.889l-4.562 18.279c-.143.537-.143.609-.143.824 0 .789.606 1.004 1.034 1.004.677 0 1.176-.502 1.319-.968.071-.179.463-1.792.677-2.688l.819-3.19c.107-.538.464-1.9.571-2.437.178-.574.427-1.685.463-1.792.285-.61 2.21-4.373 5.774-4.373 1.568 0 1.925 1.29 1.925 2.473 0 2.222-1.64 6.595-2.281 8.244-.214.573-.392 1.075-.392 1.756 0 1.864 1.318 2.975 2.922 2.975 3.422 0 4.67-5.305 4.67-5.52 0-.358-.321-.358-.428-.358-.357 0-.357.107-.535.645-1.033 3.656-2.637 4.444-3.6 4.444-.677 0-.891-.43-.891-1.183 0-.896.392-1.899.606-2.508.606-1.578 2.21-5.878 2.21-7.886 0-2.616-1.64-3.87-4.099-3.87-1.105 0-3.243.25-5.275 2.723l1.64-6.594z" fill-rule="nonzero"/><path d="M149.918 41.613h19.257v1.434h-19.257z"/><path d="M166.504 69.855h-.784c-.107.609-.392 2.58-.749 3.154-.249.322-2.281.322-3.35.322h-6.594c.962-.824 3.137-3.118 4.063-3.978 5.418-5.018 7.414-6.882 7.414-10.43 0-4.122-3.243-6.882-7.378-6.882s-6.558 3.549-6.558 6.631c0 1.828 1.568 1.828 1.675 1.828.748 0 1.675-.538 1.675-1.685 0-1.003-.677-1.684-1.675-1.684-.321 0-.392 0-.499.036.677-2.438 2.602-4.086 4.919-4.086 3.029 0 4.883 2.544 4.883 5.842 0 3.046-1.747 5.699-3.778 7.993l-7.2 8.1v.86h13.009l.927-6.021z" fill-rule="nonzero"/></g>
  </symbol>
  <symbol id="Vehicle" viewBox="0 0 200 200">
    <path
      d="M190 20.33l-16.493 22.474 10.522 4.495v6.742h-25.951l-28.344 9.846-2.747-3.85c-15.376-6.47-30.43-6.521-45.154-.001l-.003-.002c-.98 1.243.139 3.505 1.944 5.244H41.032 27.769a5.613 5.613 0 0 1-3.114-10.285c2.975-2.005 6.465-4.366 10.586-7.165a29.246 29.246 0 0 1 16.387-5.024h87.825a25.213 25.213 0 0 0 14.514-4.597l25.392-17.877H190zM54.137 47.016c.264.01.523.057.772.15a2.476 2.476 0 0 1 1.594 2.263c.042 3.346.042 6.692 0 10.038a2.48 2.48 0 0 1-1.594 2.263 2.454 2.454 0 0 1-.772.149c-1.45.019-2.902.053-4.351-.002a2.454 2.454 0 0 1-.821-.192 2.474 2.474 0 0 1-1.481-2.155c-.126-3.365-.045-6.734-.002-10.101a2.472 2.472 0 0 1 1.593-2.263 2.46 2.46 0 0 1 .773-.15c1.429-.019 2.859-.019 4.289 0zm-4.225.707a1.775 1.775 0 0 0-.598.108 1.768 1.768 0 0 0-1.138 1.616c-.043 3.349-.124 6.7.001 10.047a1.77 1.77 0 0 0 1.058 1.539c.187.081.384.124.586.137 1.446.055 2.896.055 4.343 0 .202-.013.399-.056.585-.137a1.77 1.77 0 0 0 1.058-1.539c.126-3.362.126-6.731 0-10.092a1.766 1.766 0 0 0-1.137-1.571 1.755 1.755 0 0 0-.506-.105c-1.416-.056-2.834-.003-4.252-.003zm83.209-.704c.203.008.401.045.592.119.496.191.899.607 1.093 1.126.08.214.12.44.129.67.032 2.655.032 5.312 0 7.967-.009.23-.049.456-.129.67a1.932 1.932 0 0 1-1.093 1.127 1.85 1.85 0 0 1-.592.118c-1.112.016-2.225.042-3.336-.002a1.818 1.818 0 0 1-.629-.152 1.937 1.937 0 0 1-1.008-1.091 2.139 2.139 0 0 1-.127-.62c-.096-2.67-.034-5.345-.002-8.017.009-.23.049-.456.129-.67a1.927 1.927 0 0 1 1.093-1.126c.191-.074.389-.111.592-.119 1.096-.015 2.192-.015 3.288 0zm-3.238.561a1.314 1.314 0 0 0-.459.085 1.382 1.382 0 0 0-.792.837c-.05.144-.075.293-.081.446-.032 2.658-.094 5.319.002 7.975.009.152.037.3.09.442.13.349.394.634.72.78.144.064.295.098.449.108a42.02 42.02 0 0 0 3.33 0c.154-.01.305-.044.449-.108.326-.146.59-.431.72-.78.053-.142.081-.29.09-.442.097-2.668.097-5.343 0-8.011a1.512 1.512 0 0 0-.09-.442 1.381 1.381 0 0 0-.781-.805 1.326 1.326 0 0 0-.388-.083c-1.086-.044-2.173-.002-3.259-.002zm-4.79-.281h-2.128a1.065 1.065 0 0 0-1.064 1.064v4.614c0 .587.476 1.064 1.064 1.064h2.128c.587 0 1.064-.477 1.064-1.064v-4.614c0-.586-.475-1.062-1.064-1.064zm-5.321 1.064c0-.587-.476-1.064-1.064-1.064h-2.128c-.587 0-1.064.477-1.064 1.064v4.614c0 .587.477 1.064 1.064 1.064h2.128c.588 0 1.064-.477 1.064-1.064v-4.614zm-7.448-1.064h-2.128a1.065 1.065 0 0 0-1.064 1.064v4.614c0 .587.477 1.064 1.064 1.064h2.128c.587 0 1.064-.477 1.064-1.064v-4.614c0-.586-.475-1.062-1.064-1.064zm-5.32 1.064c0-.587-.477-1.064-1.064-1.064h-2.128c-.588 0-1.064.477-1.064 1.064v4.614c0 .587.476 1.064 1.064 1.064h2.128c.587 0 1.064-.477 1.064-1.064v-4.614zm-7.449-1.064h-2.128a1.065 1.065 0 0 0-1.064 1.064v4.614c0 .587.477 1.064 1.064 1.064h2.128c.588 0 1.064-.477 1.064-1.064v-4.614c0-.586-.475-1.062-1.064-1.064zm-5.32 1.064c0-.587-.477-1.064-1.064-1.064h-2.128c-.587 0-1.064.477-1.064 1.064v4.614c0 .587.477 1.064 1.064 1.064h2.128c.587 0 1.064-.477 1.064-1.064v-4.614zm-7.448-1.064h-2.128a1.065 1.065 0 0 0-1.064 1.064v4.614c0 .587.476 1.064 1.064 1.064h2.128c.587 0 1.064-.477 1.064-1.064v-4.614c0-.586-.475-1.062-1.064-1.064zm-5.321 1.064c0-.587-.476-1.064-1.064-1.064h-2.128c-.587 0-1.064.477-1.064 1.064v4.614c0 .587.477 1.064 1.064 1.064h2.128c.588 0 1.064-.477 1.064-1.064v-4.614zm-7.448-1.064H71.89a1.065 1.065 0 0 0-1.064 1.064v4.614c0 .587.477 1.064 1.064 1.064h2.128c.587 0 1.064-.477 1.064-1.064v-4.614c0-.586-.475-1.062-1.064-1.064zm-34.05.322a.772.772 0 0 0-1.2-.639l-8.406 5.649a.771.771 0 0 0 .429 1.41h8.407c.204 0 .4-.081.545-.225a.774.774 0 0 0 .225-.545v-5.65zm28.73.742c0-.587-.477-1.064-1.064-1.064h-2.128c-.588 0-1.064.477-1.064 1.064v4.614c0 .587.476 1.064 1.064 1.064h2.128c.587 0 1.064-.477 1.064-1.064v-4.614zm-7.449-1.064h-2.128a1.065 1.065 0 0 0-1.064 1.064v4.614c0 .587.477 1.064 1.064 1.064h2.128c.588 0 1.064-.477 1.064-1.064v-4.614c0-.586-.475-1.062-1.064-1.064zM143.714 78.763h6.916L147.369 90h-10.572l6.917-11.237z"/><path d="M88.383 67.526c-3.052-1.111-6.187-5.005-4.788-6.742l.002.001c13.878-6.019 28.067-5.972 42.56.001L147.438 90h-10.641L88.383 67.526zM144.52 26.229h.069L130.371 41.68H91.904l42.044-15.451 6.917-8.896h6.916l-3.261 8.896z"/><path
      d="M88.383 67.526c-3.052-1.111-6.187-5.005-4.788-6.742l.002.001c13.878-6.019 28.067-5.972 42.56.001L147.438 90h-10.641L88.383 67.526zM47.467 172.164H25.805a2.567 2.567 0 0 1-2.566-2.565v-5.131a2.567 2.567 0 0 1 2.566-2.566h.694c-2.244-6.545-4.318-13.152-2.683-19.831.086-.336.193-.666.322-.988.971-2.427 11.503-17.902 14.551-25.486a7.84 7.84 0 0 1 5.418-4.704c17.07-3.819 37.337-5.375 71.195-.741a7.859 7.859 0 0 1 5.076 2.877c3.927 4.909 12.751 15.939 16.691 20.789a7.803 7.803 0 0 0 4.828 2.827c12.976 2.003 20.421 6.57 28.206 8.751a7.854 7.854 0 0 1 5.757 6.069l2.098 10.491a2.568 2.568 0 0 1 2.042 2.512v5.131a2.57 2.57 0 0 1-2.565 2.565h-19.128c.566-1.605.872-3.332.872-5.131 0-8.495-6.824-15.392-15.228-15.392s-15.227 6.897-15.227 15.392c0 1.799.306 3.526.871 5.131H76.18c.565-1.605.871-3.332.871-5.131 0-8.495-6.823-15.392-15.227-15.392-8.405 0-15.228 6.897-15.228 15.392 0 1.799.306 3.526.871 5.131zm78.901-35.192l-14.046-24.262c-2.347-.867-9.802-1.323-12.769-1.278l1.277 25.573 16.6-.033 1.277-2.554h3.831l2.554 2.554h1.276zm-62.57-25.54v25.54l33.201.033v-25.573c-3.061-.045-30.78-.866-33.201 0zm54.909 1.278h-3.831l15.323 24.262c2.821.116 5.311-.026 6.385-1.277l-17.877-22.985zm-75.34 1.277l-12.769 22.985h29.37l1.276-25.539c-3.06-.045-15.456 1.687-17.877 2.554z"/><path
      d="M61.824 154c7.174 0 13 5.825 13 13s-5.826 13-13 13c-7.175 0-13-5.825-13-13s5.825-13 13-13zm0 6.5c3.587 0 6.5 2.913 6.5 6.5s-2.913 6.5-6.5 6.5a6.503 6.503 0 0 1-6.5-6.5c0-3.587 2.912-6.5 6.5-6.5zM143.794 154c7.175 0 13 5.825 13 13s-5.825 13-13 13-13-5.825-13-13 5.825-13 13-13zm0 6.5c3.587 0 6.5 2.913 6.5 6.5s-2.913 6.5-6.5 6.5a6.503 6.503 0 0 1-6.5-6.5c0-3.587 2.912-6.5 6.5-6.5z"/>
  </symbol>
</svg>
